<svg id="svg" xmlns="http://www.w3.org/2000/svg" xmlns:xlink="http://www.w3.org/1999/xlink" width="400" height="400" viewBox="0, 0, 400,400" version="1.1"><g id="svgg"><path id="path0" d="M214.847 70.550 C 211.394 71.799,211.762 70.738,205.589 97.200 C 203.609 105.686,201.743 113.668,198.995 125.400 C 198.222 128.700,196.875 134.550,196.002 138.400 C 195.130 142.250,194.002 147.110,193.498 149.200 L 192.580 153.000 187.590 153.292 C 160.701 154.862,134.483 163.813,111.495 179.270 L 107.989 181.628 105.495 179.589 C 93.118 169.476,75.449 170.343,63.963 181.629 C 50.505 194.853,53.825 219.531,70.441 229.778 L 73.000 231.355 73.023 239.978 C 73.124 277.298,97.905 305.290,145.200 321.506 C 178.677 332.985,221.827 332.924,255.285 321.351 C 302.407 305.052,326.960 277.112,326.993 239.751 L 327.000 231.303 328.400 230.497 C 350.812 217.595,349.378 184.386,326.000 174.912 C 315.389 170.611,304.034 172.229,294.890 179.342 L 291.979 181.607 288.490 179.264 C 265.010 163.502,239.463 154.874,211.490 153.258 C 208.242 153.070,205.485 152.818,205.365 152.698 C 205.245 152.578,206.163 148.097,207.406 142.740 C 208.649 137.383,210.650 128.770,211.853 123.600 C 214.170 113.639,216.601 103.122,219.018 92.600 C 221.347 82.462,221.110 83.166,222.116 83.387 C 222.602 83.493,225.880 84.223,229.400 85.008 C 232.920 85.793,238.770 87.065,242.400 87.836 C 246.030 88.606,250.350 89.572,252.000 89.982 C 253.650 90.392,257.790 91.307,261.200 92.015 C 269.411 93.720,269.035 93.539,269.576 96.064 C 273.409 113.937,297.729 118.424,307.642 103.087 C 318.422 86.407,302.438 65.717,283.434 71.752 C 278.809 73.220,271.600 79.260,271.600 81.667 C 271.600 81.880,271.247 81.942,270.815 81.805 C 270.383 81.668,266.378 80.764,261.915 79.797 C 257.452 78.830,249.750 77.139,244.800 76.041 C 214.492 69.314,216.996 69.773,214.847 70.550 M155.159 204.215 C 171.554 208.080,177.145 228.580,164.922 240.013 C 152.553 251.584,133.168 245.111,129.748 228.269 C 126.836 213.928,140.698 200.806,155.159 204.215 M254.108 204.188 C 264.402 206.369,271.978 217.032,270.490 227.244 C 267.930 244.807,247.137 252.020,234.756 239.639 C 219.864 224.747,233.473 199.815,254.108 204.188 M154.118 277.138 C 181.474 295.534,218.606 295.550,245.831 277.179 C 249.814 274.491,252.133 274.562,254.021 277.427 C 255.943 280.342,254.777 282.461,249.273 286.054 C 219.094 305.754,179.389 305.381,149.282 285.115 C 144.745 282.061,143.978 279.107,147.026 276.431 C 149.104 274.607,150.572 274.753,154.118 277.138 " stroke="none" fill="#fcfbfb" fill-rule="evenodd"></path><path id="path1" d="M186.400 4.000 C 186.400 4.220,185.455 4.400,184.299 4.400 C 179.244 4.400,158.338 7.299,158.067 8.037 C 157.993 8.237,157.604 8.400,157.202 8.400 C 155.759 8.400,142.739 11.573,142.400 12.007 C 142.290 12.148,139.682 13.029,136.603 13.964 C 133.525 14.900,130.915 15.793,130.803 15.950 C 130.692 16.107,128.395 17.027,125.700 17.994 C 123.005 18.962,120.800 19.878,120.800 20.030 C 120.800 20.182,120.485 20.401,120.100 20.517 C 118.680 20.944,112.646 23.600,112.427 23.895 C 112.302 24.063,110.687 24.920,108.837 25.800 C 106.987 26.680,105.269 27.580,105.019 27.800 C 104.526 28.233,102.896 29.148,99.900 30.674 C 98.855 31.207,98.000 31.779,98.000 31.947 C 98.000 32.115,97.325 32.573,96.500 32.966 C 94.597 33.873,86.249 39.417,85.588 40.215 C 85.314 40.545,84.521 41.085,83.827 41.414 C 83.132 41.744,82.021 42.506,81.358 43.107 C 80.695 43.708,79.094 45.010,77.800 46.000 C 76.506 46.990,74.896 48.314,74.223 48.942 C 73.551 49.571,72.537 50.381,71.970 50.742 C 71.404 51.104,70.350 52.075,69.629 52.900 C 68.907 53.725,68.147 54.400,67.939 54.400 C 67.304 54.400,52.784 69.405,49.746 73.200 C 48.953 74.190,48.191 75.090,48.051 75.200 C 47.912 75.310,46.988 76.469,45.999 77.777 C 45.010 79.084,43.708 80.695,43.107 81.358 C 42.506 82.021,41.744 83.132,41.414 83.827 C 41.085 84.521,40.545 85.314,40.215 85.588 C 39.417 86.249,33.873 94.597,32.966 96.500 C 32.573 97.325,32.115 98.000,31.947 98.000 C 31.779 98.000,31.207 98.855,30.674 99.900 C 29.148 102.896,28.233 104.526,27.800 105.019 C 27.580 105.269,26.680 106.987,25.800 108.837 C 24.920 110.687,24.063 112.302,23.895 112.427 C 23.600 112.646,20.944 118.680,20.517 120.100 C 20.401 120.485,20.182 120.800,20.030 120.800 C 19.878 120.800,18.962 123.005,17.994 125.700 C 17.027 128.395,16.107 130.692,15.950 130.803 C 15.793 130.915,14.900 133.525,13.964 136.603 C 13.029 139.682,12.148 142.290,12.007 142.400 C 11.573 142.739,8.400 155.759,8.400 157.202 C 8.400 157.604,8.237 157.993,8.037 158.067 C 7.299 158.338,4.400 179.244,4.400 184.299 C 4.400 185.455,4.220 186.400,4.000 186.400 C 3.741 186.400,3.600 191.200,3.600 200.000 C 3.600 208.800,3.741 213.600,4.000 213.600 C 4.220 213.600,4.400 214.545,4.400 215.701 C 4.400 220.756,7.299 241.662,8.037 241.933 C 8.237 242.007,8.400 242.396,8.400 242.798 C 8.400 244.241,11.573 257.261,12.007 257.600 C 12.148 257.710,13.029 260.318,13.964 263.397 C 14.900 266.475,15.793 269.085,15.950 269.197 C 16.107 269.308,17.027 271.605,17.994 274.300 C 18.962 276.995,19.878 279.200,20.030 279.200 C 20.182 279.200,20.401 279.515,20.517 279.900 C 20.944 281.320,23.600 287.354,23.895 287.573 C 24.063 287.698,24.920 289.313,25.800 291.163 C 26.680 293.013,27.580 294.731,27.800 294.981 C 28.233 295.474,29.148 297.104,30.674 300.100 C 31.207 301.145,31.779 302.000,31.947 302.000 C 32.115 302.000,32.573 302.675,32.966 303.500 C 33.873 305.403,39.417 313.751,40.215 314.412 C 40.545 314.686,41.085 315.479,41.414 316.173 C 41.744 316.868,42.506 317.979,43.107 318.642 C 43.708 319.305,45.010 320.916,45.999 322.223 C 46.988 323.531,47.912 324.690,48.051 324.800 C 48.191 324.910,48.953 325.810,49.746 326.800 C 53.742 331.791,68.209 346.258,73.200 350.254 C 74.190 351.047,75.090 351.809,75.200 351.949 C 75.310 352.088,76.469 353.012,77.777 354.001 C 79.084 354.990,80.695 356.292,81.358 356.893 C 82.021 357.494,83.132 358.256,83.827 358.586 C 84.521 358.915,85.314 359.455,85.588 359.785 C 86.249 360.583,94.597 366.127,96.500 367.034 C 97.325 367.427,98.000 367.885,98.000 368.053 C 98.000 368.221,98.855 368.793,99.900 369.326 C 102.896 370.852,104.526 371.767,105.019 372.200 C 105.269 372.420,106.987 373.320,108.837 374.200 C 110.687 375.080,112.302 375.937,112.427 376.105 C 112.646 376.400,118.680 379.056,120.100 379.483 C 120.485 379.599,120.800 379.818,120.800 379.970 C 120.800 380.122,123.005 381.038,125.700 382.006 C 128.395 382.973,130.692 383.893,130.803 384.050 C 130.915 384.207,133.525 385.100,136.603 386.036 C 139.682 386.971,142.290 387.852,142.400 387.993 C 142.739 388.427,155.759 391.600,157.202 391.600 C 157.604 391.600,157.993 391.763,158.067 391.963 C 158.338 392.701,179.244 395.600,184.299 395.600 C 185.455 395.600,186.400 395.780,186.400 396.000 C 186.400 396.259,191.200 396.400,200.000 396.400 C 208.800 396.400,213.600 396.259,213.600 396.000 C 213.600 395.780,214.545 395.600,215.701 395.600 C 220.756 395.600,241.662 392.701,241.933 391.963 C 242.007 391.763,242.396 391.600,242.798 391.600 C 244.241 391.600,257.261 388.427,257.600 387.993 C 257.710 387.852,260.318 386.971,263.397 386.036 C 266.475 385.100,269.085 384.207,269.197 384.050 C 269.308 383.893,271.605 382.973,274.300 382.006 C 276.995 381.038,279.200 380.122,279.200 379.970 C 279.200 379.818,279.515 379.599,279.900 379.483 C 281.320 379.056,287.354 376.400,287.573 376.105 C 287.698 375.937,289.313 375.080,291.163 374.200 C 293.013 373.320,294.731 372.420,294.981 372.200 C 295.474 371.767,297.104 370.852,300.100 369.326 C 301.145 368.793,302.000 368.221,302.000 368.053 C 302.000 367.885,302.675 367.427,303.500 367.034 C 305.403 366.127,313.751 360.583,314.412 359.785 C 314.686 359.455,315.479 358.915,316.173 358.586 C 316.868 358.256,317.979 357.494,318.642 356.893 C 319.305 356.292,320.916 354.990,322.223 354.001 C 323.531 353.012,324.690 352.088,324.800 351.949 C 324.910 351.809,325.810 351.047,326.800 350.254 C 331.791 346.258,346.258 331.791,350.254 326.800 C 351.047 325.810,351.809 324.910,351.949 324.800 C 352.088 324.690,353.012 323.531,354.001 322.223 C 354.990 320.916,356.292 319.305,356.893 318.642 C 357.494 317.979,358.256 316.868,358.586 316.173 C 358.915 315.479,359.455 314.686,359.785 314.412 C 360.583 313.751,366.127 305.403,367.034 303.500 C 367.427 302.675,367.885 302.000,368.053 302.000 C 368.221 302.000,368.793 301.145,369.326 300.100 C 370.852 297.104,371.767 295.474,372.200 294.981 C 372.420 294.731,373.320 293.013,374.200 291.163 C 375.080 289.313,375.937 287.698,376.105 287.573 C 376.400 287.354,379.056 281.320,379.483 279.900 C 379.599 279.515,379.818 279.200,379.970 279.200 C 380.122 279.200,381.038 276.995,382.006 274.300 C 382.973 271.605,383.893 269.308,384.050 269.197 C 384.207 269.085,385.100 266.475,386.036 263.397 C 386.971 260.318,387.852 257.710,387.993 257.600 C 388.427 257.261,391.600 244.241,391.600 242.798 C 391.600 242.396,391.763 242.007,391.963 241.933 C 392.701 241.662,395.600 220.756,395.600 215.701 C 395.600 214.545,395.780 213.600,396.000 213.600 C 396.259 213.600,396.400 208.800,396.400 200.000 C 396.400 191.200,396.259 186.400,396.000 186.400 C 395.780 186.400,395.600 185.455,395.600 184.299 C 395.600 179.244,392.701 158.338,391.963 158.067 C 391.763 157.993,391.600 157.604,391.600 157.202 C 391.600 155.759,388.427 142.739,387.993 142.400 C 387.852 142.290,386.971 139.682,386.036 136.603 C 385.100 133.525,384.207 130.915,384.050 130.803 C 383.893 130.692,382.973 128.395,382.006 125.700 C 381.038 123.005,380.122 120.800,379.970 120.800 C 379.818 120.800,379.599 120.485,379.483 120.100 C 379.056 118.680,376.400 112.646,376.105 112.427 C 375.937 112.302,375.080 110.687,374.200 108.837 C 373.320 106.987,372.420 105.269,372.200 105.019 C 371.767 104.526,370.852 102.896,369.326 99.900 C 368.793 98.855,368.221 98.000,368.053 98.000 C 367.885 98.000,367.427 97.325,367.034 96.500 C 366.127 94.597,360.583 86.249,359.785 85.588 C 359.455 85.314,358.915 84.521,358.586 83.827 C 358.256 83.132,357.494 82.021,356.893 81.358 C 356.292 80.695,354.990 79.084,354.001 77.777 C 353.012 76.469,352.088 75.310,351.949 75.200 C 351.809 75.090,351.047 74.190,350.254 73.200 C 346.258 68.209,331.791 53.742,326.800 49.746 C 325.810 48.953,324.910 48.191,324.800 48.051 C 324.690 47.912,323.531 46.988,322.223 45.999 C 320.916 45.010,319.305 43.708,318.642 43.107 C 317.979 42.506,316.868 41.744,316.173 41.414 C 315.479 41.085,314.686 40.545,314.412 40.215 C 313.751 39.417,305.403 33.873,303.500 32.966 C 302.675 32.573,302.000 32.115,302.000 31.947 C 302.000 31.779,301.145 31.207,300.100 30.674 C 297.104 29.148,295.474 28.233,294.981 27.800 C 294.731 27.580,293.013 26.680,291.163 25.800 C 289.313 24.920,287.698 24.063,287.573 23.895 C 287.354 23.600,281.320 20.944,279.900 20.517 C 279.515 20.401,279.200 20.182,279.200 20.030 C 279.200 19.878,276.995 18.962,274.300 17.994 C 271.605 17.027,269.308 16.107,269.197 15.950 C 269.085 15.793,266.475 14.900,263.397 13.964 C 260.318 13.029,257.710 12.148,257.600 12.007 C 257.261 11.573,244.241 8.400,242.798 8.400 C 242.396 8.400,242.007 8.237,241.933 8.037 C 241.662 7.299,220.756 4.400,215.701 4.400 C 214.545 4.400,213.600 4.220,213.600 4.000 C 213.600 3.741,208.800 3.600,200.000 3.600 C 191.200 3.600,186.400 3.741,186.400 4.000 M226.620 72.022 C 231.669 73.133,239.850 74.942,244.800 76.041 C 249.750 77.139,257.452 78.830,261.915 79.797 C 266.378 80.764,270.383 81.668,270.815 81.805 C 271.247 81.942,271.600 81.880,271.600 81.667 C 271.600 79.260,278.809 73.220,283.434 71.752 C 302.438 65.717,318.422 86.407,307.642 103.087 C 297.729 118.424,273.409 113.937,269.576 96.064 C 269.035 93.539,269.411 93.720,261.200 92.015 C 257.790 91.307,253.650 90.392,252.000 89.982 C 250.350 89.572,246.030 88.606,242.400 87.836 C 238.770 87.065,232.920 85.793,229.400 85.008 C 225.880 84.223,222.602 83.493,222.116 83.387 C 221.110 83.166,221.347 82.462,219.018 92.600 C 216.601 103.122,214.170 113.639,211.853 123.600 C 210.650 128.770,208.649 137.383,207.406 142.740 C 206.163 148.097,205.245 152.578,205.365 152.698 C 205.485 152.818,208.242 153.070,211.490 153.258 C 239.463 154.874,265.010 163.502,288.490 179.264 L 291.979 181.607 294.890 179.342 C 304.034 172.229,315.389 170.611,326.000 174.912 C 349.378 184.386,350.812 217.595,328.400 230.497 L 327.000 231.303 326.993 239.751 C 326.962 274.360,306.718 300.020,265.800 317.315 C 225.294 334.435,174.608 334.435,134.200 317.314 C 93.371 300.015,73.116 274.410,73.023 239.978 L 73.000 231.355 70.441 229.778 C 53.825 219.531,50.505 194.853,63.963 181.629 C 75.449 170.343,93.118 169.476,105.495 179.589 L 107.989 181.628 111.495 179.270 C 134.483 163.813,160.701 154.862,187.590 153.292 L 192.580 153.000 193.498 149.200 C 194.002 147.110,195.130 142.250,196.002 138.400 C 196.875 134.550,198.222 128.700,198.995 125.400 C 201.743 113.668,203.609 105.686,205.589 97.200 C 211.762 70.738,211.394 71.799,214.847 70.550 C 216.806 69.842,216.611 69.817,226.620 72.022 M145.674 204.212 C 135.085 206.511,127.620 217.788,129.748 228.269 C 133.168 245.111,152.553 251.584,164.922 240.013 C 180.492 225.448,166.629 199.663,145.674 204.212 M244.658 204.234 C 228.610 208.118,223.064 227.947,234.756 239.639 C 247.137 252.020,267.930 244.807,270.490 227.244 C 272.537 213.202,258.663 200.843,244.658 204.234 M147.026 276.431 C 143.978 279.107,144.745 282.061,149.282 285.115 C 179.389 305.381,219.094 305.754,249.273 286.054 C 254.777 282.461,255.943 280.342,254.021 277.427 C 252.133 274.562,249.814 274.491,245.831 277.179 C 218.606 295.550,181.474 295.534,154.118 277.138 C 150.572 274.753,149.104 274.607,147.026 276.431 " stroke="none" fill="#fc4404" fill-rule="evenodd"></path></g></svg>