<svg id="svg" xmlns="http://www.w3.org/2000/svg" xmlns:xlink="http://www.w3.org/1999/xlink" width="400" height="298.6666666666667" viewBox="0, 0, 400,298.6666666666667" version="1.1"><g id="svgg"><path id="path0" d="M278.118 8.686 C 277.050 8.827,273.420 9.093,270.052 9.276 C 266.684 9.460,262.450 9.716,260.642 9.846 C 258.795 9.978,257.313 9.967,257.257 9.820 C 257.202 9.677,256.555 9.559,255.820 9.559 C 255.085 9.559,254.557 9.679,254.647 9.824 C 254.737 9.970,254.543 10.159,254.216 10.244 C 253.889 10.330,253.622 10.278,253.622 10.129 C 253.622 9.600,250.579 9.821,250.154 10.381 C 249.912 10.700,249.754 10.758,249.748 10.530 C 249.738 10.132,246.729 9.980,246.351 10.358 C 246.240 10.469,245.357 10.527,244.389 10.488 C 243.421 10.448,242.551 10.541,242.457 10.694 C 242.362 10.848,241.947 10.908,241.535 10.830 C 241.122 10.751,240.279 10.798,239.661 10.936 C 238.568 11.178,238.590 11.190,240.478 11.366 L 242.420 11.547 240.682 11.599 C 239.727 11.627,238.719 11.537,238.442 11.398 C 238.165 11.259,237.334 11.220,236.594 11.311 L 235.250 11.475 236.445 11.694 C 237.276 11.846,237.036 11.872,235.660 11.777 C 233.214 11.609,228.493 11.949,228.697 12.278 C 228.779 12.412,228.149 12.438,227.297 12.337 C 226.219 12.210,225.808 12.252,225.947 12.478 C 226.077 12.688,225.596 12.860,224.575 12.968 C 222.468 13.191,214.765 13.783,212.621 13.886 C 211.675 13.931,210.734 14.101,210.530 14.263 C 210.045 14.647,206.367 14.970,206.590 14.609 C 206.681 14.461,206.245 14.355,205.619 14.374 C 204.512 14.409,204.506 14.415,205.377 14.617 L 206.273 14.824 205.153 14.969 C 204.537 15.050,204.033 15.008,204.033 14.877 C 204.033 14.745,203.462 14.647,202.763 14.659 C 201.744 14.676,201.612 14.734,202.091 14.956 C 202.521 15.156,202.345 15.186,201.465 15.066 C 198.751 14.696,187.593 16.291,188.027 16.987 C 188.092 17.091,187.183 17.150,186.007 17.118 C 184.678 17.081,184.151 17.144,184.615 17.283 C 185.105 17.430,183.409 17.692,179.686 18.043 C 176.565 18.337,173.895 18.650,173.753 18.738 C 173.611 18.825,173.376 18.711,173.230 18.485 C 173.046 18.199,172.897 18.173,172.741 18.401 C 172.431 18.854,170.874 19.209,170.874 18.826 C 170.874 18.353,169.989 18.467,169.447 19.009 C 169.127 19.329,168.920 19.381,168.846 19.159 C 168.706 18.738,166.990 18.706,166.990 19.124 C 166.990 19.300,166.674 19.350,166.244 19.242 C 165.834 19.139,165.262 19.152,164.975 19.272 C 164.687 19.391,164.115 19.528,163.704 19.575 C 160.287 19.967,158.026 20.429,158.377 20.663 C 158.632 20.834,158.486 20.862,157.970 20.742 C 156.953 20.507,151.755 21.200,151.755 21.571 C 151.755 21.723,151.469 21.757,151.120 21.646 C 150.761 21.532,150.397 21.589,150.280 21.777 C 150.167 21.959,148.941 22.247,147.554 22.417 C 146.168 22.586,144.630 22.843,144.137 22.988 C 142.396 23.501,138.379 23.916,137.113 23.714 C 136.217 23.570,135.892 23.607,136.033 23.835 C 136.171 24.059,135.903 24.108,135.182 23.991 C 134.603 23.897,134.130 23.945,134.130 24.098 C 134.130 24.251,133.659 24.321,133.084 24.254 C 132.461 24.181,132.039 24.262,132.039 24.454 C 132.039 24.631,131.841 24.700,131.600 24.607 C 131.156 24.437,127.048 25.022,126.532 25.329 C 126.379 25.420,126.513 25.588,126.831 25.701 C 127.149 25.813,126.602 25.893,125.616 25.877 C 123.466 25.841,121.499 26.210,121.742 26.602 C 121.927 26.902,121.867 26.929,120.687 27.066 C 118.146 27.363,113.637 28.248,113.475 28.482 C 113.369 28.634,112.899 28.663,112.430 28.545 C 111.961 28.427,111.681 28.435,111.809 28.563 C 112.041 28.795,99.222 31.042,97.535 31.065 C 96.832 31.075,96.736 31.142,97.087 31.380 C 97.417 31.603,97.309 31.631,96.682 31.485 C 96.203 31.373,95.744 31.419,95.636 31.588 C 95.531 31.754,92.890 32.358,89.768 32.930 C 86.647 33.502,83.875 34.064,83.608 34.179 C 83.320 34.304,82.929 34.193,82.640 33.904 C 82.359 33.623,81.998 33.517,81.780 33.652 C 81.574 33.779,81.203 33.897,80.956 33.914 C 79.736 33.995,78.536 34.450,78.915 34.686 C 79.140 34.826,78.805 34.853,78.146 34.747 C 77.418 34.630,77.047 34.669,77.160 34.851 C 77.268 35.026,76.972 35.088,76.417 35.007 C 75.824 34.920,75.563 34.983,75.686 35.182 C 75.806 35.377,75.643 35.432,75.250 35.329 C 74.904 35.238,74.524 35.322,74.405 35.514 C 74.286 35.706,72.654 36.147,70.776 36.493 C 68.899 36.839,67.175 37.272,66.945 37.455 C 66.516 37.797,66.615 54.367,67.183 76.923 C 67.298 81.524,67.286 85.332,67.154 85.387 C 67.023 85.442,66.916 87.365,66.916 89.662 C 66.916 91.962,67.033 93.764,67.176 93.676 C 67.320 93.587,67.518 94.016,67.618 94.629 C 67.721 95.260,67.673 95.786,67.507 95.843 C 67.142 95.967,67.110 104.167,67.474 104.307 C 67.880 104.463,68.199 105.751,67.832 105.751 C 67.256 105.751,67.414 113.760,68.001 114.347 C 68.321 114.667,68.373 114.874,68.151 114.948 C 67.767 115.076,67.654 123.077,68.036 123.076 C 68.159 123.076,68.218 124.773,68.168 126.848 C 68.117 128.923,68.170 130.838,68.285 131.105 C 68.401 131.372,68.464 132.565,68.426 133.757 C 68.381 135.161,68.471 135.922,68.682 135.922 C 68.881 135.922,69.028 135.085,69.062 133.757 L 69.116 131.591 69.286 133.981 C 69.379 135.295,69.449 140.134,69.442 144.735 C 69.435 149.335,69.525 152.427,69.641 151.606 C 69.757 150.784,69.783 151.911,69.699 154.109 C 69.592 156.885,69.648 158.169,69.880 158.313 C 70.101 158.450,70.314 161.334,70.510 166.862 C 70.673 171.451,70.935 177.625,71.092 180.583 C 71.276 184.048,71.275 185.995,71.088 186.059 C 70.689 186.197,70.723 187.229,71.132 187.365 C 71.353 187.439,71.457 188.644,71.443 190.953 C 71.428 193.341,71.550 194.694,71.832 195.273 C 72.265 196.159,72.612 201.991,72.218 201.747 C 72.095 201.670,72.013 202.725,72.036 204.090 C 72.071 206.088,72.121 206.339,72.293 205.377 L 72.507 204.182 72.549 205.278 C 72.572 205.881,72.682 206.609,72.792 206.895 C 72.928 207.251,72.881 207.348,72.642 207.201 C 72.385 207.042,72.302 207.641,72.328 209.467 C 72.354 211.267,72.427 211.703,72.595 211.053 C 72.725 210.551,72.756 211.305,72.665 212.771 C 72.524 215.046,72.566 215.385,72.987 215.385 C 73.407 215.385,73.461 215.828,73.404 218.820 C 73.368 220.710,73.439 222.256,73.562 222.256 C 73.686 222.256,73.773 222.894,73.757 223.674 C 73.732 224.831,73.683 224.955,73.488 224.347 C 73.265 223.651,73.246 223.645,73.219 224.254 C 73.202 224.614,73.317 224.988,73.473 225.084 C 73.638 225.186,73.683 226.299,73.579 227.763 C 73.482 229.140,73.505 230.514,73.630 230.817 C 73.755 231.119,73.832 232.126,73.802 233.054 C 73.771 233.989,73.889 234.830,74.065 234.939 C 74.240 235.047,74.402 235.901,74.423 236.836 C 74.457 238.306,74.489 238.394,74.661 237.491 C 74.792 236.802,74.936 237.926,75.082 240.777 C 75.531 249.515,75.885 255.296,76.047 256.535 C 76.151 257.335,76.096 257.804,75.896 257.804 C 75.520 257.804,75.464 259.204,75.835 259.348 C 76.228 259.501,76.560 261.688,76.190 261.688 C 75.707 261.688,75.819 264.061,76.326 264.568 C 76.840 265.082,76.912 265.571,76.475 265.571 C 75.966 265.571,76.126 268.307,76.671 268.909 C 76.966 269.235,77.026 269.455,76.820 269.455 C 76.218 269.455,76.375 272.639,76.989 272.874 C 77.401 273.032,77.423 273.122,77.100 273.321 C 76.790 273.513,76.751 273.976,76.930 275.322 C 77.059 276.285,77.145 277.476,77.121 277.969 C 77.097 278.462,77.197 279.335,77.343 279.910 C 77.588 280.874,77.615 280.803,77.691 279.014 L 77.773 277.072 77.946 279.004 L 78.118 280.936 80.358 281.503 C 81.591 281.814,82.686 282.208,82.792 282.377 C 82.899 282.546,83.262 282.612,83.600 282.524 C 83.937 282.436,84.253 282.480,84.302 282.622 C 84.351 282.764,85.198 282.918,86.184 282.964 C 87.170 283.010,88.064 283.169,88.172 283.317 C 88.279 283.466,89.240 283.600,90.306 283.616 C 91.421 283.632,92.100 283.750,91.903 283.893 C 91.713 284.031,92.226 284.073,93.055 283.987 C 94.034 283.885,94.343 283.921,93.951 284.090 C 93.366 284.344,93.367 284.350,93.984 284.370 C 94.330 284.382,95.204 284.443,95.925 284.506 C 96.959 284.597,97.047 284.573,96.341 284.396 L 95.444 284.171 96.379 284.132 C 96.893 284.110,97.480 284.294,97.685 284.541 C 97.898 284.798,98.550 284.989,99.215 284.989 C 99.852 284.989,100.373 285.123,100.373 285.288 C 100.373 285.452,100.575 285.586,100.822 285.586 C 101.068 285.586,101.270 285.475,101.270 285.339 C 101.270 285.203,101.673 285.151,102.166 285.224 C 102.659 285.296,103.064 285.508,103.067 285.695 C 103.070 285.935,103.135 285.940,103.291 285.709 C 103.447 285.478,104.800 285.537,107.991 285.916 C 110.456 286.209,112.808 286.465,113.219 286.486 C 113.913 286.522,113.923 286.544,113.368 286.798 C 112.965 286.982,113.451 287.030,114.862 286.944 C 116.443 286.848,116.698 286.880,115.907 287.075 C 115.130 287.266,115.474 287.305,117.252 287.228 C 118.734 287.163,119.188 287.200,118.447 287.326 C 117.622 287.467,117.405 287.593,117.746 287.733 C 118.529 288.054,124.227 288.655,124.878 288.485 C 125.202 288.400,125.467 288.470,125.467 288.640 C 125.467 288.830,126.039 288.893,126.960 288.805 C 127.782 288.726,128.454 288.776,128.454 288.916 C 128.454 289.056,129.067 289.171,129.816 289.171 C 130.637 289.171,131.105 289.054,130.995 288.876 C 130.891 288.706,131.011 288.656,131.276 288.758 C 131.531 288.856,131.740 289.056,131.740 289.203 C 131.740 289.350,132.353 289.470,133.102 289.470 C 133.851 289.470,134.400 289.367,134.322 289.241 C 134.163 288.982,143.767 289.588,147.423 290.067 C 149.926 290.394,172.318 291.113,172.557 290.873 C 172.633 290.797,172.485 289.825,172.227 288.714 C 171.969 287.602,171.837 286.410,171.933 286.065 C 172.055 285.625,172.025 285.557,171.831 285.836 C 171.615 286.146,171.519 286.100,171.395 285.626 C 171.308 285.291,171.390 284.944,171.578 284.854 C 171.830 284.733,171.826 284.646,171.563 284.521 C 171.367 284.429,171.280 284.160,171.371 283.924 C 171.461 283.688,171.399 283.495,171.232 283.495 C 171.066 283.495,171.000 283.226,171.086 282.898 C 171.172 282.569,171.096 282.300,170.918 282.300 C 170.740 282.300,170.662 282.122,170.746 281.904 C 170.830 281.686,170.736 281.114,170.538 280.634 C 170.198 279.811,170.137 279.639,169.994 279.089 C 169.962 278.966,169.809 279.134,169.653 279.462 C 169.420 279.957,169.398 279.918,169.531 279.238 C 169.733 278.199,169.411 276.868,169.018 277.112 C 168.833 277.226,168.796 277.054,168.920 276.662 C 169.057 276.229,168.994 276.027,168.720 276.027 C 168.471 276.027,168.106 275.202,167.763 273.861 C 167.458 272.670,167.104 271.628,166.977 271.545 C 166.849 271.462,166.233 269.378,165.607 266.914 C 164.981 264.451,164.364 262.390,164.234 262.334 C 164.105 262.279,164.085 262.096,164.189 261.928 C 164.293 261.759,164.248 261.535,164.089 261.430 C 163.930 261.326,163.293 259.358,162.674 257.058 C 162.055 254.757,161.413 252.709,161.248 252.506 C 161.084 252.302,161.027 251.933,161.122 251.684 C 161.218 251.436,161.187 251.232,161.054 251.232 C 160.920 251.232,160.299 249.249,159.672 246.826 C 159.046 244.403,158.433 242.353,158.310 242.270 C 158.187 242.188,157.596 240.239,156.996 237.939 C 156.395 235.639,155.824 233.555,155.726 233.308 C 155.627 233.062,155.578 232.610,155.617 232.305 C 155.656 231.999,155.557 231.830,155.397 231.929 C 155.157 232.077,154.791 231.021,154.579 229.574 C 154.555 229.410,154.451 229.074,154.349 228.827 C 154.246 228.581,153.874 227.304,153.522 225.990 C 153.171 224.675,152.774 223.464,152.640 223.297 C 152.410 223.010,150.828 217.077,150.119 213.838 C 150.041 213.481,149.851 213.110,149.697 213.015 C 149.543 212.920,148.907 210.894,148.284 208.512 C 147.661 206.131,147.044 204.137,146.914 204.083 C 146.783 204.028,146.677 203.852,146.677 203.692 C 146.677 203.531,146.811 203.483,146.975 203.585 C 147.402 203.848,147.344 203.548,146.879 203.083 C 146.662 202.866,145.974 200.807,145.351 198.506 C 144.727 196.206,144.119 194.257,144.001 194.175 C 143.882 194.093,143.194 191.718,142.471 188.899 C 141.748 186.079,141.075 183.823,140.975 183.885 C 140.874 183.947,140.621 183.229,140.410 182.290 C 140.200 181.351,139.964 180.416,139.886 180.212 C 139.801 179.990,140.303 179.601,141.138 179.243 C 141.905 178.915,142.735 178.443,142.983 178.195 C 143.230 177.947,143.592 177.747,143.785 177.749 C 143.992 177.752,143.952 177.874,143.689 178.043 C 143.406 178.226,143.375 178.335,143.605 178.337 C 143.805 178.340,144.544 179.115,145.248 180.060 C 145.952 181.004,146.763 182.038,147.051 182.358 C 147.340 182.677,147.856 183.517,148.198 184.225 C 148.541 184.933,148.994 185.613,149.205 185.736 C 149.711 186.031,151.482 189.568,151.243 189.807 C 151.141 189.909,151.200 189.993,151.374 189.993 C 151.548 189.993,151.775 190.329,151.878 190.739 C 151.981 191.150,152.205 191.486,152.376 191.486 C 152.547 191.486,152.603 191.621,152.502 191.785 C 152.400 191.949,152.460 192.084,152.634 192.084 C 152.808 192.084,152.923 192.184,152.891 192.308 C 152.840 192.501,153.713 194.233,155.697 197.876 C 155.975 198.387,156.570 199.679,157.019 200.747 C 157.468 201.815,157.991 202.823,158.182 202.987 C 158.372 203.152,159.041 204.429,159.668 205.825 C 160.294 207.222,160.907 208.432,161.030 208.514 C 161.443 208.791,163.648 213.847,163.451 214.067 C 163.344 214.187,163.427 214.187,163.636 214.066 C 163.899 213.915,164.232 214.341,164.711 215.437 C 165.093 216.312,165.653 217.599,165.957 218.297 C 166.260 218.996,166.624 219.567,166.767 219.567 C 166.909 219.567,166.950 219.690,166.857 219.840 C 166.764 219.990,166.830 220.161,167.005 220.219 C 167.179 220.277,167.358 220.524,167.402 220.767 C 167.508 221.351,169.467 225.345,169.751 225.557 C 169.873 225.648,170.458 226.858,171.051 228.246 C 171.644 229.634,172.313 230.915,172.538 231.094 C 172.762 231.273,173.416 232.516,173.990 233.858 C 174.564 235.200,175.175 236.465,175.347 236.670 C 175.882 237.308,179.215 244.062,178.997 244.067 C 178.883 244.070,178.930 244.171,179.101 244.291 C 179.271 244.412,179.796 245.385,180.266 246.453 C 180.736 247.521,181.217 248.462,181.336 248.544 C 181.714 248.805,183.719 252.989,183.719 253.515 C 183.719 253.793,183.802 253.937,183.904 253.836 C 184.100 253.640,186.478 258.297,186.496 258.911 C 186.502 259.110,186.642 259.188,186.807 259.086 C 186.987 258.975,187.028 259.105,186.910 259.414 C 186.802 259.696,186.828 259.855,186.969 259.769 C 187.110 259.682,187.722 260.714,188.330 262.063 C 188.938 263.412,189.527 264.585,189.639 264.670 C 189.751 264.755,191.045 267.244,192.514 270.202 C 193.984 273.159,195.328 275.678,195.502 275.798 C 195.703 275.938,195.665 276.019,195.398 276.022 C 195.066 276.026,195.084 276.143,195.480 276.581 C 195.789 276.923,195.902 277.343,195.774 277.676 C 195.631 278.048,195.676 278.149,195.916 278.000 C 196.109 277.881,196.275 277.893,196.286 278.026 C 196.411 279.488,196.700 280.251,197.653 281.635 C 198.269 282.529,198.947 283.327,199.160 283.409 C 199.374 283.491,199.474 283.678,199.383 283.825 C 199.292 283.972,199.352 284.093,199.515 284.093 C 199.678 284.093,199.982 284.563,200.190 285.138 C 200.398 285.713,200.676 286.184,200.807 286.184 C 200.938 286.184,201.012 286.346,200.971 286.544 C 200.930 286.741,201.053 286.909,201.245 286.917 C 201.436 286.924,201.705 287.053,201.842 287.202 C 201.987 287.360,201.935 287.384,201.718 287.260 C 200.598 286.615,202.116 289.035,204.133 291.110 L 205.467 292.483 236.938 292.334 C 281.376 292.123,283.495 292.102,283.349 291.864 C 283.277 291.748,284.221 291.716,285.447 291.795 C 287.100 291.901,287.677 291.842,287.677 291.567 C 287.677 291.320,288.023 291.237,288.718 291.318 C 289.291 291.385,289.795 291.348,289.838 291.236 C 289.882 291.124,292.399 290.877,295.431 290.686 C 298.463 290.496,301.555 290.198,302.302 290.023 C 303.049 289.848,305.407 289.685,307.543 289.662 C 309.679 289.638,310.889 289.545,310.232 289.455 L 309.037 289.290 310.577 289.156 C 311.424 289.082,312.055 289.122,311.978 289.246 C 311.902 289.369,312.318 289.470,312.902 289.470 C 313.487 289.470,313.966 289.368,313.966 289.244 C 313.966 289.119,314.571 289.065,315.310 289.124 C 316.049 289.183,316.654 289.113,316.654 288.969 C 316.654 288.825,317.192 288.758,317.849 288.821 C 318.506 288.884,319.045 288.820,319.047 288.680 C 319.048 288.539,319.916 288.393,320.974 288.354 C 322.033 288.316,323.477 288.134,324.183 287.950 C 324.889 287.767,326.004 287.538,326.662 287.443 L 327.857 287.269 326.960 287.039 C 326.356 286.883,326.648 286.848,327.857 286.930 C 328.981 287.006,329.371 286.965,328.902 286.819 C 328.346 286.645,328.956 286.488,331.292 286.200 C 333.017 285.988,335.399 285.648,336.585 285.446 C 338.139 285.181,338.776 285.170,338.869 285.407 C 338.941 285.591,339.215 285.440,339.493 285.063 C 339.766 284.694,340.149 284.391,340.346 284.390 C 342.181 284.384,342.056 277.713,340.213 277.367 C 339.820 277.293,338.601 276.238,337.464 274.987 C 336.340 273.752,335.289 272.741,335.128 272.741 C 334.708 272.741,332.792 271.233,332.870 270.964 C 332.973 270.606,329.912 267.961,329.395 267.961 C 329.139 267.961,328.689 267.602,328.393 267.163 C 327.447 265.757,325.853 264.336,325.412 264.505 C 325.179 264.595,325.063 264.546,325.156 264.396 C 325.249 264.246,324.886 263.818,324.350 263.445 C 323.814 263.072,322.928 262.255,322.382 261.630 C 321.835 261.005,321.249 260.493,321.080 260.493 C 320.911 260.493,320.508 260.156,320.183 259.743 C 319.859 259.331,319.479 259.064,319.340 259.151 C 319.200 259.237,318.988 259.150,318.869 258.958 C 318.721 258.719,318.786 258.688,319.073 258.861 C 319.430 259.076,319.431 259.039,319.082 258.609 C 318.857 258.331,318.487 258.103,318.261 258.103 C 318.034 258.103,317.849 257.979,317.849 257.827 C 317.849 257.462,315.396 255.123,315.008 255.119 C 314.843 255.117,314.536 254.842,314.326 254.507 C 314.117 254.172,313.813 253.980,313.650 254.081 C 313.486 254.182,312.883 253.794,312.308 253.219 C 311.733 252.644,311.147 252.130,311.007 252.076 C 310.463 251.869,308.290 249.722,308.290 249.391 C 308.290 249.199,308.203 249.129,308.096 249.235 C 307.903 249.429,306.516 248.320,304.257 246.165 C 303.600 245.538,302.760 244.871,302.390 244.683 C 302.020 244.494,301.717 244.177,301.716 243.978 C 301.715 243.778,301.210 243.279,300.595 242.869 C 299.980 242.459,298.977 241.652,298.366 241.076 C 297.755 240.501,296.485 239.358,295.543 238.536 C 294.601 237.715,293.345 236.559,292.751 235.968 C 292.158 235.378,291.462 234.773,291.205 234.624 C 290.947 234.476,289.751 233.480,288.545 232.412 C 287.340 231.344,285.543 229.756,284.551 228.883 C 283.560 228.010,282.199 226.800,281.527 226.194 C 280.855 225.589,279.526 224.421,278.574 223.600 C 277.621 222.778,276.271 221.568,275.574 220.911 C 274.877 220.254,273.534 219.044,272.590 218.223 C 271.646 217.401,270.393 216.286,269.806 215.745 C 269.219 215.204,268.093 214.269,267.304 213.667 C 266.516 213.065,265.870 212.479,265.870 212.363 C 265.870 212.248,265.030 211.487,264.003 210.674 C 262.976 209.860,261.452 208.532,260.617 207.723 C 259.782 206.914,258.505 205.796,257.779 205.237 C 257.054 204.679,256.120 203.877,255.705 203.455 C 255.290 203.034,254.019 201.882,252.880 200.896 C 251.742 199.910,250.518 198.823,250.161 198.481 C 249.803 198.138,248.860 197.332,248.064 196.688 C 247.268 196.045,246.123 195.049,245.520 194.473 C 244.917 193.898,243.731 192.823,242.883 192.084 C 242.035 191.344,240.845 190.265,240.238 189.686 C 239.631 189.106,238.627 188.257,238.008 187.799 C 237.340 187.305,236.965 186.822,237.085 186.612 C 237.196 186.418,237.188 186.348,237.066 186.458 C 236.943 186.567,236.619 186.467,236.346 186.235 C 234.737 184.871,231.911 182.401,229.879 180.583 C 228.594 179.432,227.092 178.105,226.542 177.632 C 225.992 177.159,225.541 176.680,225.541 176.567 C 225.541 176.366,235.143 175.642,237.789 175.644 C 238.529 175.644,238.972 175.542,238.775 175.416 C 238.450 175.210,246.465 174.733,273.040 173.377 C 278.051 173.121,282.399 172.780,282.703 172.619 C 283.022 172.450,284.060 172.412,285.167 172.531 C 286.340 172.657,287.080 172.624,287.080 172.447 C 287.080 172.288,288.525 172.070,290.291 171.962 C 294.157 171.724,297.863 170.887,299.102 169.971 C 299.602 169.602,299.905 169.485,299.775 169.713 C 299.646 169.941,300.041 169.555,300.654 168.855 C 301.267 168.156,301.912 167.672,302.088 167.781 C 302.264 167.890,302.333 167.857,302.241 167.709 C 302.150 167.560,302.760 166.833,303.598 166.094 C 304.435 165.355,305.717 164.115,306.447 163.339 C 307.177 162.562,307.890 161.999,308.032 162.087 C 308.174 162.174,308.290 162.128,308.290 161.983 C 308.290 161.464,310.438 159.223,310.751 159.417 C 310.927 159.525,310.996 159.493,310.904 159.344 C 310.812 159.196,311.280 158.536,311.944 157.879 C 312.608 157.222,313.057 156.852,312.943 157.058 C 312.327 158.166,313.761 156.895,318.671 151.979 C 321.666 148.981,324.141 146.393,324.170 146.229 C 324.200 146.064,324.873 145.346,325.667 144.632 C 326.461 143.919,327.041 143.222,326.955 143.083 C 326.870 142.945,327.306 142.462,327.926 142.009 C 329.706 140.708,331.325 139.118,331.610 138.391 C 331.878 137.706,331.415 134.511,330.976 134.020 C 330.848 133.877,330.811 133.272,330.893 132.676 C 331.007 131.847,330.967 131.696,330.720 132.039 C 330.475 132.378,330.444 132.240,330.592 131.470 C 330.732 130.743,330.690 130.513,330.446 130.664 C 330.220 130.803,330.168 130.707,330.293 130.381 C 330.398 130.110,330.337 129.797,330.158 129.687 C 329.702 129.405,328.611 123.870,328.967 123.641 C 329.123 123.541,329.030 123.374,328.759 123.270 C 328.488 123.166,328.353 122.942,328.457 122.773 C 328.562 122.604,328.552 122.031,328.434 121.501 C 328.244 120.645,328.192 120.604,327.965 121.135 C 327.798 121.524,327.767 121.264,327.875 120.388 C 328.003 119.353,327.964 119.147,327.705 119.492 C 327.433 119.855,327.405 119.812,327.558 119.268 C 327.753 118.578,326.676 113.873,326.218 113.406 C 326.077 113.263,326.034 112.957,326.123 112.725 C 326.212 112.494,326.006 112.063,325.665 111.767 C 325.250 111.408,324.883 110.448,324.557 108.866 C 324.288 107.566,324.013 106.412,323.944 106.301 C 323.876 106.191,323.989 106.032,324.195 105.949 C 324.494 105.829,324.493 105.793,324.191 105.774 C 323.939 105.758,323.875 105.502,324.000 105.004 C 324.120 104.527,324.061 104.257,323.839 104.257 C 323.647 104.257,323.578 104.115,323.685 103.941 C 323.903 103.588,322.054 97.685,321.726 97.685 C 321.611 97.685,321.577 97.370,321.651 96.985 C 321.728 96.579,321.578 96.079,321.291 95.793 C 321.020 95.521,320.882 95.164,320.984 94.999 C 321.087 94.833,321.044 94.698,320.890 94.698 C 320.736 94.698,320.383 93.793,320.105 92.687 C 319.827 91.581,319.453 90.498,319.272 90.281 C 319.092 90.064,318.944 89.294,318.944 88.571 C 318.944 87.847,318.842 87.319,318.716 87.397 C 318.591 87.474,318.391 87.380,318.272 87.188 C 318.137 86.970,318.185 86.918,318.400 87.051 C 318.834 87.319,318.833 87.290,318.326 85.377 C 317.523 82.345,316.717 80.583,316.263 80.863 C 316.081 80.976,316.028 80.801,316.127 80.420 C 316.218 80.073,316.188 79.750,316.060 79.701 C 315.630 79.536,314.625 75.311,314.981 75.164 C 315.197 75.075,315.184 75.020,314.946 75.005 C 314.746 74.992,314.659 74.780,314.754 74.533 C 314.848 74.287,314.769 74.085,314.577 74.085 C 314.386 74.085,314.316 73.945,314.422 73.773 C 314.528 73.602,314.482 73.299,314.319 73.101 C 314.157 72.903,313.873 72.175,313.688 71.484 C 313.475 70.687,313.215 70.279,312.977 70.370 C 312.726 70.467,312.315 69.601,311.730 67.744 C 311.250 66.220,310.751 64.899,310.621 64.808 C 310.371 64.633,308.877 60.430,308.944 60.093 C 308.966 59.984,308.828 59.517,308.637 59.054 C 308.446 58.592,308.290 58.088,308.290 57.934 C 308.290 57.781,308.155 57.655,307.991 57.655 C 307.827 57.655,307.714 57.554,307.740 57.431 C 307.766 57.308,307.677 56.938,307.542 56.609 C 306.671 54.487,305.601 51.485,305.601 51.164 C 305.601 50.955,305.452 50.784,305.271 50.784 C 305.081 50.784,305.024 50.566,305.137 50.270 C 305.245 49.988,305.237 49.854,305.118 49.973 C 304.909 50.182,302.341 43.568,302.324 42.775 C 302.319 42.560,302.210 42.449,302.082 42.529 C 301.953 42.608,301.320 41.305,300.675 39.634 C 300.029 37.962,299.408 36.527,299.294 36.445 C 299.180 36.363,298.579 35.019,297.958 33.458 C 297.336 31.897,296.726 30.578,296.601 30.526 C 296.476 30.474,296.457 30.217,296.557 29.954 C 296.671 29.658,296.620 29.551,296.423 29.673 C 296.043 29.908,295.657 29.059,295.938 28.605 C 296.046 28.430,295.994 28.373,295.823 28.479 C 295.652 28.585,295.445 28.438,295.363 28.152 C 295.281 27.866,295.108 27.375,294.979 27.061 C 294.814 26.658,294.849 26.553,295.095 26.705 C 295.986 27.256,294.660 24.130,293.447 22.821 C 292.658 21.969,291.780 19.895,292.082 19.594 C 292.179 19.497,292.107 19.417,291.923 19.417 C 291.739 19.417,291.498 18.939,291.388 18.354 C 291.246 17.595,291.066 17.338,290.758 17.456 C 290.448 17.575,290.376 17.467,290.501 17.073 C 290.678 16.516,289.330 13.742,288.883 13.742 C 288.753 13.742,288.479 13.338,288.275 12.845 C 288.071 12.353,287.794 11.949,287.659 11.949 C 287.525 11.949,287.328 11.367,287.221 10.654 C 286.903 8.534,286.876 8.519,283.282 8.472 C 281.510 8.449,279.186 8.545,278.118 8.686 M208.290 14.246 C 208.577 14.321,209.048 14.321,209.335 14.246 C 209.623 14.171,209.388 14.110,208.813 14.110 C 208.237 14.110,208.002 14.171,208.290 14.246 M163.928 20.221 C 163.641 20.296,163.170 20.296,162.883 20.221 C 162.595 20.146,162.830 20.084,163.406 20.084 C 163.981 20.084,164.216 20.146,163.928 20.221 M123.376 26.587 C 122.787 26.967,122.095 26.967,122.330 26.587 C 122.432 26.423,122.809 26.290,123.169 26.293 C 123.701 26.297,123.740 26.352,123.376 26.587 M277.846 29.201 C 289.593 54.429,297.839 76.590,305.551 103.659 C 308.348 113.475,313.069 132.557,313.069 134.044 C 313.069 134.409,309.042 138.983,302.577 145.959 L 292.086 157.282 289.508 157.501 C 288.090 157.622,280.948 158.131,273.637 158.633 C 243.351 160.710,221.592 162.229,218.223 162.501 C 216.251 162.660,209.328 163.142,202.838 163.572 C 189.660 164.445,190.364 164.318,191.785 165.574 C 192.785 166.457,206.303 179.074,221.948 193.727 C 225.983 197.506,234.323 205.302,240.482 211.053 C 246.641 216.804,252.890 222.653,254.369 224.052 C 255.847 225.451,266.266 235.192,277.521 245.700 C 288.775 256.208,299.046 265.832,300.345 267.088 L 302.706 269.372 302.004 271.065 C 301.131 273.171,303.204 272.889,283.196 273.622 C 256.440 274.603,227.868 275.681,223.140 275.888 L 218.796 276.078 215.698 270.750 C 213.994 267.820,211.502 263.540,210.161 261.240 C 207.127 256.037,202.455 247.999,196.704 238.088 C 194.272 233.898,191.184 228.588,189.841 226.288 C 188.497 223.988,185.137 218.208,182.374 213.443 C 176.203 202.801,164.133 182.028,162.252 178.811 C 161.490 177.508,159.654 174.349,158.173 171.791 L 155.480 167.140 138.959 167.062 C 123.312 166.989,122.446 167.013,122.599 167.511 C 122.687 167.799,126.587 183.428,131.264 202.240 C 135.941 221.053,141.792 244.567,144.267 254.495 C 146.741 264.422,148.709 272.601,148.640 272.670 C 148.571 272.739,145.647 272.451,142.144 272.031 C 131.713 270.779,123.964 269.870,110.082 268.272 C 102.853 267.439,96.446 266.683,95.844 266.591 L 94.750 266.424 94.565 263.682 C 94.233 258.763,92.628 231.626,92.009 220.463 C 91.676 214.466,91.070 203.913,90.662 197.013 C 90.254 190.112,89.581 178.484,89.168 171.173 C 88.755 163.861,88.085 152.166,87.679 145.183 C 87.274 138.200,86.535 125.228,86.038 116.355 C 85.541 107.483,84.999 98.275,84.834 95.892 C 84.334 88.699,82.450 55.102,82.450 53.391 L 82.450 51.795 87.603 50.810 C 119.431 44.727,165.051 37.753,196.227 34.205 C 199.781 33.800,205.579 33.137,209.111 32.730 C 223.647 31.058,270.303 26.747,275.208 26.623 L 276.629 26.587 277.846 29.201 M313.219 71.397 C 313.131 71.538,313.196 71.738,313.363 71.842 C 313.530 71.945,313.666 72.257,313.665 72.534 C 313.664 72.854,313.499 72.725,313.217 72.184 C 312.699 71.191,312.641 70.683,313.074 70.951 C 313.241 71.055,313.306 71.255,313.219 71.397 M125.572 74.757 C 125.680 76.441,126.382 86.087,127.132 96.191 C 127.883 106.296,128.793 118.689,129.155 123.732 C 129.518 128.775,129.886 132.973,129.975 133.062 C 130.064 133.151,135.034 132.822,141.020 132.332 C 147.007 131.842,157.752 130.965,164.899 130.385 C 200.489 127.494,210.786 126.631,211.129 126.511 C 211.427 126.407,211.489 121.103,211.428 100.756 L 211.352 75.131 205.825 74.918 C 202.786 74.800,193.241 74.432,184.615 74.099 C 175.990 73.766,167.789 73.421,166.393 73.332 C 163.749 73.163,127.762 71.697,126.243 71.696 L 125.377 71.695 125.572 74.757 M145.034 86.206 C 146.512 86.218,148.663 86.313,149.813 86.418 C 151.687 86.587,157.318 86.838,181.479 87.826 C 185.422 87.988,190.093 88.203,191.860 88.305 L 195.071 88.489 195.071 100.955 L 195.071 113.421 189.768 113.802 C 186.852 114.011,183.928 114.227,183.271 114.283 C 182.614 114.338,181.404 114.393,180.583 114.403 C 179.518 114.417,179.218 114.504,179.537 114.707 C 179.847 114.904,179.434 114.985,178.193 114.971 C 177.207 114.959,172.569 115.298,167.886 115.723 C 163.204 116.148,158.835 116.499,158.178 116.503 C 155.985 116.515,148.325 117.249,147.968 117.480 C 147.774 117.606,147.019 117.673,146.290 117.629 L 144.965 117.550 144.579 113.069 C 144.367 110.605,144.101 108.521,143.988 108.439 C 143.798 108.300,141.876 87.990,141.897 86.333 C 141.902 85.922,142.005 85.721,142.126 85.885 C 142.246 86.049,143.555 86.194,145.034 86.206 M71.793 198.506 C 71.795 199.656,71.849 200.090,71.913 199.471 C 71.978 198.851,71.977 197.910,71.911 197.379 C 71.845 196.849,71.792 197.356,71.793 198.506 M325.243 287.286 C 324.955 287.361,324.485 287.361,324.197 287.286 C 323.910 287.211,324.145 287.149,324.720 287.149 C 325.295 287.149,325.530 287.211,325.243 287.286 M135.702 289.684 C 136.156 289.753,136.829 289.751,137.196 289.680 C 137.563 289.609,137.192 289.553,136.370 289.555 C 135.549 289.557,135.248 289.615,135.702 289.684 M139.735 289.980 C 140.106 290.051,140.644 290.049,140.930 289.974 C 141.215 289.899,140.911 289.841,140.254 289.844 C 139.597 289.847,139.363 289.908,139.735 289.980 " stroke="none" fill="#e3342c" fill-rule="evenodd"></path><path id="path1" d="M259.298 9.559 C 259.298 9.724,259.836 9.858,260.493 9.858 C 261.150 9.858,261.688 9.724,261.688 9.559 C 261.688 9.395,261.150 9.261,260.493 9.261 C 259.836 9.261,259.298 9.395,259.298 9.559 M186.408 16.709 C 185.751 16.902,185.809 16.944,186.894 17.057 C 187.804 17.152,188.089 17.087,187.982 16.808 C 187.824 16.395,187.538 16.377,186.408 16.709 M256.908 28.105 C 239.128 29.629,219.860 31.494,209.111 32.730 C 205.579 33.137,199.781 33.800,196.227 34.205 C 165.051 37.753,119.431 44.727,87.603 50.810 L 82.450 51.795 82.450 53.391 C 82.450 55.102,84.334 88.699,84.834 95.892 C 84.999 98.275,85.541 107.483,86.038 116.355 C 86.535 125.228,87.274 138.200,87.679 145.183 C 88.085 152.166,88.755 163.861,89.168 171.173 C 89.581 178.484,90.254 190.112,90.662 197.013 C 91.070 203.913,91.676 214.466,92.009 220.463 C 92.628 231.626,94.233 258.763,94.565 263.682 L 94.750 266.424 95.844 266.591 C 96.446 266.683,102.853 267.439,110.082 268.272 C 123.964 269.870,131.713 270.779,142.144 272.031 C 145.647 272.451,148.571 272.739,148.640 272.670 C 148.709 272.601,146.741 264.422,144.267 254.495 C 141.792 244.567,135.941 221.053,131.264 202.240 C 126.587 183.428,122.687 167.799,122.599 167.511 C 122.446 167.013,123.312 166.989,138.959 167.062 L 155.480 167.140 158.173 171.791 C 159.654 174.349,161.490 177.508,162.252 178.811 C 164.133 182.028,176.203 202.801,182.374 213.443 C 185.137 218.208,188.497 223.988,189.841 226.288 C 191.184 228.588,194.272 233.898,196.704 238.088 C 202.455 247.999,207.127 256.037,210.161 261.240 C 211.502 263.540,213.994 267.820,215.698 270.750 L 218.796 276.078 223.140 275.888 C 227.868 275.681,256.440 274.603,283.196 273.622 C 303.204 272.889,301.131 273.171,302.004 271.065 L 302.706 269.372 300.345 267.088 C 299.046 265.832,288.775 256.208,277.521 245.700 C 266.266 235.192,255.847 225.451,254.369 224.052 C 252.890 222.653,246.641 216.804,240.482 211.053 C 234.323 205.302,225.983 197.506,221.948 193.727 C 206.303 179.074,192.785 166.457,191.785 165.574 C 190.364 164.318,189.660 164.445,202.838 163.572 C 209.328 163.142,216.251 162.660,218.223 162.501 C 221.592 162.229,243.351 160.710,273.637 158.633 C 280.948 158.131,288.090 157.622,289.508 157.501 L 292.086 157.282 302.577 145.959 C 309.042 138.983,313.069 134.409,313.069 134.044 C 313.069 132.557,308.348 113.475,305.551 103.659 C 297.839 76.590,289.593 54.429,277.846 29.201 L 276.629 26.587 275.208 26.623 C 274.426 26.643,266.191 27.310,256.908 28.105 M294.865 26.861 C 294.875 26.957,295.210 27.707,295.609 28.529 C 296.007 29.350,296.254 29.703,296.156 29.313 C 296.043 28.863,296.091 28.673,296.286 28.794 C 296.455 28.898,296.391 28.467,296.143 27.835 C 295.781 26.913,294.791 26.159,294.865 26.861 M112.476 28.030 C 112.244 28.633,112.275 28.678,112.920 28.678 C 113.249 28.678,113.518 28.565,113.518 28.426 C 113.518 28.288,114.425 28.046,115.534 27.890 L 117.550 27.604 115.090 27.618 C 113.327 27.629,112.586 27.745,112.476 28.030 M109.285 28.412 C 109.122 28.512,109.419 28.680,109.946 28.785 C 111.428 29.082,111.924 29.016,111.924 28.525 C 111.924 28.069,109.979 27.986,109.285 28.412 M102.315 29.628 C 97.449 30.536,97.139 30.622,97.481 30.963 C 97.710 31.193,107.953 29.562,108.073 29.278 C 108.118 29.170,108.589 29.123,109.119 29.172 C 110.001 29.253,110.019 29.239,109.335 28.999 C 108.196 28.600,107.477 28.665,102.315 29.628 M90.896 32.389 C 89.585 32.648,88.997 32.661,88.902 32.435 C 88.807 32.206,88.697 32.206,88.522 32.434 C 88.169 32.892,87.229 33.195,87.229 32.851 C 87.229 32.692,87.028 32.562,86.781 32.562 C 86.535 32.562,86.333 32.673,86.333 32.809 C 86.333 32.944,85.930 32.996,85.437 32.924 C 84.944 32.852,84.541 32.924,84.541 33.084 C 84.541 33.244,84.238 33.323,83.869 33.260 C 82.912 33.096,82.133 33.646,82.748 34.052 C 82.995 34.215,83.398 34.262,83.645 34.158 C 83.891 34.053,86.176 33.586,88.723 33.120 C 94.045 32.145,94.526 32.035,93.503 32.028 C 93.092 32.025,91.919 32.188,90.896 32.389 M297.535 32.336 C 297.535 32.641,299.115 36.312,299.304 36.445 C 299.420 36.527,299.834 37.459,300.225 38.516 C 300.615 39.572,300.985 40.285,301.047 40.101 C 301.109 39.916,301.011 39.488,300.830 39.150 C 300.629 38.774,300.615 38.536,300.794 38.536 C 301.097 38.536,300.106 36.017,299.514 35.282 C 299.329 35.053,298.977 34.324,298.730 33.663 C 298.374 32.706,297.535 31.775,297.535 32.336 M66.387 38.835 C 66.387 39.410,66.449 39.645,66.524 39.358 C 66.599 39.070,66.599 38.600,66.524 38.312 C 66.449 38.025,66.387 38.260,66.387 38.835 M303.630 46.711 C 304.303 48.589,304.954 50.065,305.075 49.991 C 305.196 49.917,305.216 50.066,305.118 50.321 C 305.020 50.576,305.089 50.784,305.271 50.784 C 305.844 50.784,305.628 49.831,304.326 46.621 C 302.614 42.400,302.107 42.465,303.630 46.711 M305.610 51.382 C 305.610 51.628,305.741 52.031,305.900 52.278 C 306.157 52.676,306.190 52.676,306.190 52.278 C 306.190 52.031,306.059 51.628,305.900 51.382 C 305.643 50.983,305.610 50.983,305.610 51.382 M306.219 52.905 C 306.157 53.451,306.900 54.937,307.156 54.779 C 307.324 54.675,307.341 54.511,307.193 54.406 C 307.048 54.304,306.774 53.883,306.584 53.473 C 306.394 53.062,306.230 52.807,306.219 52.905 M307.239 55.273 C 307.089 55.516,307.123 55.722,307.324 55.790 C 307.508 55.851,307.585 56.094,307.494 56.330 C 307.404 56.566,307.493 56.759,307.692 56.759 C 307.892 56.759,307.978 56.960,307.883 57.207 C 307.788 57.453,307.822 57.655,307.957 57.655 C 308.093 57.655,308.326 58.081,308.475 58.602 C 308.625 59.124,308.927 59.610,309.147 59.683 C 309.651 59.851,309.435 59.067,308.308 56.635 C 307.729 55.386,307.416 54.987,307.239 55.273 M308.961 60.418 C 309.037 60.624,309.398 61.699,309.764 62.808 C 310.130 63.917,310.545 64.824,310.686 64.824 C 310.827 64.824,310.748 64.455,310.510 64.003 C 310.272 63.550,310.153 62.829,310.245 62.397 C 310.346 61.925,310.248 61.448,309.999 61.199 C 309.772 60.972,309.642 60.619,309.710 60.416 C 309.778 60.212,309.606 60.045,309.328 60.045 C 309.050 60.045,308.885 60.212,308.961 60.418 M66.411 63.181 C 66.412 64.167,66.468 64.535,66.535 63.998 C 66.601 63.461,66.600 62.654,66.532 62.205 C 66.463 61.756,66.409 62.196,66.411 63.181 M311.363 66.641 C 311.456 66.874,311.761 67.838,312.042 68.783 C 312.494 70.309,313.069 71.081,313.069 70.162 C 313.069 69.453,312.366 67.513,312.108 67.513 C 311.960 67.513,311.900 67.412,311.975 67.289 C 312.050 67.166,311.904 66.874,311.652 66.641 C 311.256 66.274,311.216 66.274,311.363 66.641 M145.482 72.433 C 155.586 72.838,164.996 73.243,166.393 73.332 C 167.789 73.421,175.990 73.766,184.615 74.099 C 193.241 74.432,202.786 74.800,205.825 74.918 L 211.352 75.131 211.428 100.756 C 211.489 121.103,211.427 126.407,211.129 126.511 C 210.786 126.631,200.489 127.494,164.899 130.385 C 157.752 130.965,147.007 131.842,141.020 132.332 C 135.034 132.822,130.064 133.151,129.975 133.062 C 129.886 132.973,129.518 128.775,129.155 123.732 C 128.793 118.689,127.883 106.296,127.132 96.191 C 126.382 86.087,125.680 76.441,125.572 74.757 L 125.377 71.695 126.243 71.696 C 126.720 71.696,135.377 72.028,145.482 72.433 M66.617 77.521 C 66.617 79.412,66.735 80.657,66.916 80.657 C 67.096 80.657,67.214 79.412,67.214 77.521 C 67.214 75.629,67.096 74.384,66.916 74.384 C 66.735 74.384,66.617 75.629,66.617 77.521 M141.913 86.184 C 141.854 87.310,142.916 98.880,143.079 98.879 C 143.168 98.879,143.219 99.652,143.191 100.597 L 143.142 102.315 143.401 100.373 C 143.664 98.401,143.462 93.426,143.126 93.627 C 143.025 93.688,142.926 92.610,142.906 91.232 C 142.886 89.854,142.782 88.177,142.675 87.505 L 142.479 86.282 143.458 86.489 C 143.996 86.602,144.564 86.815,144.720 86.962 C 145.159 87.375,147.411 87.278,148.319 86.807 C 149.338 86.278,147.138 85.905,144.032 86.080 C 142.988 86.139,142.140 86.055,142.069 85.885 C 142.000 85.721,141.930 85.855,141.913 86.184 M149.963 86.630 C 149.647 86.835,150.107 86.923,151.513 86.926 C 152.613 86.928,153.599 87.072,153.706 87.244 C 153.830 87.445,154.024 87.455,154.246 87.272 C 154.437 87.116,154.929 86.926,155.340 86.850 C 155.751 86.775,154.989 86.695,153.647 86.672 C 152.304 86.650,151.027 86.566,150.809 86.486 C 150.590 86.405,150.209 86.470,149.963 86.630 M158.413 87.152 C 159.363 87.211,160.842 87.211,161.699 87.150 C 162.555 87.090,161.777 87.042,159.970 87.042 C 158.163 87.043,157.462 87.092,158.413 87.152 M165.422 87.450 C 166.285 87.510,167.696 87.510,168.559 87.450 C 169.421 87.389,168.715 87.340,166.990 87.340 C 165.265 87.340,164.559 87.389,165.422 87.450 M174.384 87.747 C 175.082 87.810,176.225 87.810,176.923 87.747 C 177.621 87.684,177.050 87.632,175.653 87.632 C 174.257 87.632,173.686 87.684,174.384 87.747 M182.599 88.041 C 183.051 88.109,183.790 88.109,184.242 88.041 C 184.694 87.972,184.324 87.916,183.420 87.916 C 182.517 87.916,182.147 87.972,182.599 88.041 M185.960 88.424 L 184.167 88.622 186.408 88.643 C 187.640 88.655,189.388 88.562,190.291 88.437 L 191.934 88.210 189.843 88.218 C 188.693 88.222,186.945 88.315,185.960 88.424 M191.486 88.723 C 190.296 88.908,190.408 88.937,192.457 88.977 L 194.772 89.022 194.772 100.822 C 194.772 111.310,194.720 112.621,194.306 112.621 C 194.050 112.621,193.907 112.728,193.987 112.858 C 194.068 112.989,193.269 113.040,192.212 112.973 C 191.156 112.906,190.292 112.967,190.292 113.109 C 190.292 113.252,189.486 113.323,188.499 113.267 C 187.513 113.211,186.706 113.290,186.706 113.441 C 186.706 113.592,185.967 113.655,185.063 113.580 C 184.028 113.494,183.420 113.560,183.420 113.757 C 183.420 113.930,183.185 114.143,182.898 114.231 C 182.610 114.319,182.845 114.337,183.420 114.272 C 183.996 114.206,186.852 113.988,189.768 113.787 L 195.071 113.421 195.071 100.923 L 195.071 88.424 193.951 88.469 C 193.335 88.494,192.226 88.608,191.486 88.723 M143.765 101.120 C 143.768 101.777,143.829 102.011,143.901 101.640 C 143.972 101.268,143.969 100.730,143.895 100.445 C 143.820 100.159,143.761 100.463,143.765 101.120 M143.571 104.825 C 143.636 106.041,143.689 107.351,143.689 107.737 C 143.689 108.123,143.837 108.439,144.018 108.439 C 144.352 108.439,144.300 107.690,143.727 104.257 C 143.458 102.641,143.455 102.650,143.571 104.825 M144.372 110.381 C 144.374 111.202,144.432 111.503,144.501 111.049 C 144.570 110.595,144.568 109.923,144.497 109.555 C 144.426 109.188,144.370 109.559,144.372 110.381 M144.667 113.518 C 144.667 114.257,144.725 114.559,144.796 114.190 C 144.868 113.820,144.868 113.215,144.796 112.845 C 144.725 112.476,144.667 112.778,144.667 113.518 M181.031 114.115 C 181.031 114.279,181.232 114.414,181.479 114.414 C 181.725 114.414,181.927 114.279,181.927 114.115 C 181.927 113.951,181.725 113.816,181.479 113.816 C 181.232 113.816,181.031 113.951,181.031 114.115 M178.342 114.712 C 178.342 114.877,178.712 115.009,179.164 115.007 C 179.804 115.003,179.886 114.938,179.537 114.712 C 178.952 114.335,178.342 114.335,178.342 114.712 M174.160 115.011 L 172.517 115.213 174.160 115.257 C 175.063 115.281,176.004 115.170,176.251 115.011 C 176.765 114.679,176.870 114.679,174.160 115.011 M162.347 115.588 C 162.442 115.741,162.148 115.923,161.693 115.992 C 160.200 116.217,164.104 116.137,166.243 115.898 L 168.335 115.665 166.169 115.721 C 164.978 115.752,164.003 115.672,164.003 115.544 C 164.003 115.415,163.592 115.310,163.089 115.310 C 162.587 115.310,162.253 115.435,162.347 115.588 M169.305 115.526 C 169.839 115.592,170.713 115.592,171.247 115.526 C 171.781 115.460,171.344 115.406,170.276 115.406 C 169.208 115.406,168.771 115.460,169.305 115.526 M157.793 116.068 C 157.460 116.445,157.633 116.505,159.053 116.505 C 160.393 116.505,160.666 116.422,160.526 116.057 C 160.302 115.471,158.312 115.479,157.793 116.068 M153.433 116.371 C 153.284 116.760,153.505 116.820,154.797 116.744 C 156.887 116.622,157.144 115.907,155.098 115.907 C 154.030 115.907,153.561 116.038,153.433 116.371 M149.962 116.430 C 149.962 116.553,148.819 116.646,147.423 116.636 C 145.313 116.620,144.884 116.696,144.886 117.084 C 144.887 117.632,147.698 117.924,148.016 117.409 C 148.120 117.240,149.060 117.102,150.105 117.102 C 151.150 117.102,152.218 117.021,152.477 116.921 C 153.421 116.559,152.916 116.206,151.456 116.206 C 150.635 116.206,149.962 116.307,149.962 116.430 M331.002 133.140 C 330.997 133.334,331.192 134.439,331.435 135.595 C 331.679 136.751,331.794 137.936,331.692 138.229 C 331.521 138.717,331.547 138.722,332.014 138.284 C 332.486 137.842,332.488 137.665,332.053 135.787 C 331.606 133.860,331.022 132.387,331.002 133.140 M68.572 137.043 C 68.698 137.659,68.881 140.045,68.980 142.345 L 69.158 146.527 69.356 143.417 C 69.464 141.707,69.430 139.984,69.280 139.589 C 69.130 139.194,69.007 138.207,69.007 137.397 C 69.007 136.514,68.873 135.922,68.675 135.922 C 68.450 135.922,68.416 136.283,68.572 137.043 M310.588 159.220 C 309.324 160.533,308.290 161.750,308.290 161.926 C 308.290 162.102,308.176 162.175,308.037 162.089 C 307.898 162.003,307.410 162.324,306.952 162.801 C 306.256 163.528,306.217 163.644,306.711 163.514 C 307.843 163.218,313.807 156.833,312.952 156.833 C 312.916 156.833,311.853 157.907,310.588 159.220 M301.883 167.593 C 300.905 168.566,300.205 169.460,300.325 169.581 C 300.446 169.702,301.446 168.899,302.548 167.798 C 303.649 166.697,304.350 165.802,304.105 165.810 C 303.860 165.818,302.860 166.620,301.883 167.593 M295.349 171.287 C 294.558 171.476,293.989 171.709,294.086 171.806 C 294.183 171.903,293.554 171.938,292.688 171.883 C 291.437 171.804,291.267 171.842,291.860 172.068 C 292.377 172.266,291.757 172.303,289.843 172.188 C 287.969 172.077,287.080 172.127,287.080 172.345 C 287.080 172.522,286.677 172.666,286.184 172.666 C 285.691 172.666,285.288 172.817,285.288 173.000 C 285.288 173.375,290.431 173.123,292.009 172.672 C 292.502 172.531,293.546 172.329,294.330 172.223 C 295.259 172.097,295.684 171.916,295.551 171.700 C 295.417 171.484,295.526 171.439,295.866 171.569 C 296.167 171.685,296.572 171.581,296.832 171.321 C 297.336 170.817,297.327 170.817,295.349 171.287 M282.748 172.666 C 282.647 172.830,281.395 172.967,279.967 172.969 C 278.539 172.971,277.069 173.054,276.699 173.153 C 275.366 173.510,276.069 173.861,278.118 173.861 C 279.268 173.861,280.209 173.759,280.209 173.635 C 280.209 173.510,281.285 173.457,282.599 173.517 C 284.864 173.620,284.989 173.593,284.989 172.997 C 284.989 172.316,283.134 172.042,282.748 172.666 M271.621 173.461 C 270.671 173.845,271.432 174.160,273.306 174.160 C 274.861 174.160,275.408 174.050,275.537 173.712 C 275.709 173.264,272.603 173.065,271.621 173.461 M266.359 174.010 C 266.218 174.378,266.511 174.459,267.992 174.459 C 269.197 174.459,269.945 174.310,270.244 174.010 C 270.643 173.612,270.461 173.562,268.612 173.562 C 267.038 173.562,266.490 173.672,266.359 174.010 M260.866 174.067 C 261.154 174.142,261.389 174.328,261.389 174.480 C 261.389 174.633,261.935 174.757,262.602 174.757 C 263.281 174.757,263.738 174.634,263.641 174.477 C 263.546 174.323,263.975 174.144,264.594 174.079 C 265.214 174.014,264.511 173.955,263.032 173.946 C 261.553 173.937,260.579 173.992,260.866 174.067 M256.096 174.380 C 256.881 174.442,258.091 174.441,258.784 174.378 C 259.478 174.315,258.835 174.265,257.356 174.266 C 255.878 174.267,255.310 174.318,256.096 174.380 M250.718 174.678 C 251.504 174.740,252.714 174.739,253.407 174.677 C 254.100 174.614,253.458 174.564,251.979 174.565 C 250.500 174.565,249.933 174.617,250.718 174.678 M245.191 174.976 C 245.893 175.040,246.969 175.039,247.581 174.974 C 248.193 174.910,247.618 174.859,246.303 174.860 C 244.989 174.861,244.488 174.913,245.191 174.976 M238.883 175.409 C 239.329 175.625,239.790 175.626,240.377 175.412 C 241.159 175.127,241.109 175.103,239.731 175.100 C 238.481 175.097,238.343 175.147,238.883 175.409 M229.798 176.041 C 225.092 176.362,225.032 176.395,226.736 177.745 C 228.016 178.758,228.310 178.724,227.334 177.676 C 226.463 176.741,226.542 176.689,228.677 176.799 C 229.885 176.861,230.620 176.782,230.620 176.589 C 230.620 176.392,231.170 176.344,232.127 176.458 C 232.982 176.559,233.919 176.498,234.293 176.316 C 234.655 176.140,235.153 175.929,235.400 175.848 C 235.986 175.655,234.944 175.691,229.798 176.041 M142.983 178.195 C 142.735 178.443,141.919 178.909,141.169 179.230 C 140.419 179.552,139.808 179.987,139.810 180.198 C 139.814 180.472,139.878 180.484,140.034 180.243 C 140.303 179.827,142.478 178.894,142.764 179.071 C 142.878 179.141,143.163 179.080,143.398 178.935 C 143.663 178.771,144.003 178.807,144.295 179.029 C 144.553 179.226,144.459 179.095,144.086 178.737 C 143.627 178.297,143.526 178.039,143.773 177.939 C 144.039 177.832,144.042 177.785,143.785 177.768 C 143.592 177.755,143.230 177.947,142.983 178.195 M145.078 180.134 C 145.209 180.381,145.320 180.748,145.324 180.950 C 145.335 181.428,147.874 184.615,148.244 184.615 C 148.544 184.615,147.919 183.538,146.677 181.910 C 145.607 180.509,144.799 179.611,145.078 180.134 M230.208 180.646 C 230.091 180.763,230.256 181.065,230.573 181.318 C 230.891 181.571,231.722 182.240,232.421 182.806 C 234.045 184.123,233.574 183.104,231.830 181.528 C 230.507 180.333,230.516 180.338,230.208 180.646 M140.906 182.937 C 140.632 183.653,140.648 184.086,140.944 183.904 C 141.076 183.822,141.567 185.321,142.034 187.235 C 142.746 190.155,142.926 190.598,143.153 189.986 C 143.330 189.507,143.314 189.220,143.106 189.151 C 142.932 189.093,142.866 188.921,142.961 188.768 C 143.144 188.471,142.399 185.642,141.748 184.167 C 141.531 183.674,141.298 183.076,141.232 182.838 C 141.137 182.500,141.066 182.522,140.906 182.937 M234.481 184.692 C 235.209 185.517,235.840 185.787,235.641 185.190 C 235.582 185.014,235.451 184.913,235.349 184.966 C 235.247 185.020,234.847 184.796,234.460 184.468 C 233.758 183.874,233.758 183.875,234.481 184.692 M235.997 185.448 C 235.997 185.941,238.670 188.614,238.916 188.368 C 239.020 188.264,238.406 187.479,237.551 186.625 C 236.696 185.770,235.997 185.241,235.997 185.448 M149.509 186.506 C 149.760 186.889,149.892 187.275,149.803 187.364 C 149.579 187.588,150.296 189.096,150.626 189.096 C 150.773 189.096,150.811 189.231,150.709 189.395 C 150.608 189.559,150.733 189.694,150.988 189.694 C 151.355 189.694,151.253 189.293,150.493 187.752 C 149.967 186.684,149.427 185.810,149.294 185.810 C 149.161 185.810,149.258 186.124,149.509 186.506 M239.860 189.357 C 240.219 190.028,241.408 190.954,241.628 190.734 C 241.814 190.549,240.781 189.418,240.085 189.046 C 239.601 188.787,239.575 188.823,239.860 189.357 M143.311 190.564 C 143.098 191.377,143.663 194.175,144.039 194.175 C 144.175 194.175,144.287 194.399,144.287 194.673 C 144.287 194.946,144.375 195.082,144.483 194.974 C 144.591 194.867,144.439 194.246,144.146 193.596 C 143.853 192.946,143.689 192.217,143.781 191.976 C 143.874 191.734,143.848 191.157,143.724 190.692 C 143.499 189.851,143.497 189.850,143.311 190.564 M150.859 190.222 C 150.859 190.723,152.402 192.686,152.667 192.522 C 152.823 192.426,152.950 192.280,152.950 192.198 C 152.950 192.116,152.793 192.146,152.600 192.264 C 152.365 192.410,152.313 192.318,152.442 191.983 C 152.547 191.710,152.505 191.486,152.349 191.486 C 152.193 191.486,151.981 191.150,151.878 190.739 C 151.711 190.075,150.859 189.642,150.859 190.222 M242.270 191.153 C 242.270 191.554,244.053 193.388,244.250 193.191 C 244.464 192.977,243.488 191.652,242.793 191.214 C 242.506 191.032,242.270 191.005,242.270 191.153 M245.723 194.548 C 246.172 195.082,246.621 195.522,246.720 195.527 C 246.819 195.531,247.438 196.034,248.096 196.645 C 248.753 197.257,249.399 197.757,249.532 197.758 C 249.988 197.761,248.982 196.632,247.446 195.418 C 246.600 194.749,245.820 194.062,245.714 193.890 C 245.608 193.718,245.383 193.577,245.213 193.577 C 245.044 193.577,245.273 194.014,245.723 194.548 M154.015 195.220 C 154.129 195.549,154.244 196.020,154.272 196.267 C 154.385 197.287,157.327 202.742,157.611 202.459 C 157.889 202.181,155.868 198.066,155.550 198.262 C 155.353 198.384,155.314 198.257,155.446 197.915 C 155.566 197.601,155.477 197.173,155.235 196.895 C 155.005 196.631,154.590 196.012,154.313 195.519 C 154.035 195.026,153.901 194.892,154.015 195.220 M145.279 198.222 C 145.376 198.542,145.611 199.444,145.802 200.224 C 145.994 201.004,146.278 201.643,146.433 201.643 C 146.589 201.643,146.632 201.912,146.527 202.240 C 146.414 202.598,146.474 202.838,146.677 202.838 C 146.880 202.838,146.940 203.078,146.826 203.435 C 146.722 203.764,146.753 204.033,146.896 204.033 C 147.039 204.033,147.472 205.343,147.858 206.943 C 148.379 209.102,148.620 209.700,148.792 209.258 C 149.131 208.391,149.111 208.152,148.721 208.394 C 148.480 208.542,148.430 208.395,148.558 207.909 C 148.828 206.875,147.883 203.735,147.300 203.730 C 146.906 203.726,146.897 203.680,147.248 203.458 C 147.604 203.233,147.575 202.965,147.062 201.745 C 146.728 200.949,146.363 199.913,146.252 199.441 C 146.141 198.969,145.837 198.371,145.577 198.111 C 145.146 197.680,145.120 197.689,145.279 198.222 M251.130 199.365 C 251.756 199.878,252.506 200.534,252.796 200.822 C 253.086 201.109,253.323 201.275,253.323 201.190 C 253.323 201.105,253.744 201.475,254.259 202.012 C 254.773 202.548,255.008 202.731,254.781 202.419 C 254.555 202.106,254.409 201.795,254.459 201.727 C 254.509 201.659,254.172 201.310,253.712 200.951 C 253.252 200.593,252.574 199.945,252.206 199.513 C 251.839 199.080,251.190 198.660,250.764 198.579 C 250.053 198.443,250.083 198.506,251.130 199.365 M255.713 203.409 C 255.713 203.548,256.453 204.221,257.356 204.903 C 259.241 206.326,259.529 206.151,257.879 204.584 C 256.743 203.506,255.713 202.947,255.713 203.409 M158.779 204.332 C 158.887 204.742,158.973 205.317,158.968 205.608 C 158.964 205.908,159.099 206.052,159.280 205.939 C 159.465 205.825,159.541 205.916,159.459 206.157 C 159.237 206.815,161.668 211.501,162.232 211.501 C 162.613 211.501,161.556 208.901,161.017 208.514 C 160.903 208.432,160.308 207.289,159.695 205.975 C 159.083 204.660,158.670 203.921,158.779 204.332 M262.721 209.610 C 263.685 210.486,264.545 211.133,264.632 211.047 C 264.892 210.786,261.995 208.016,261.462 208.016 C 261.158 208.016,261.644 208.631,262.721 209.610 M148.819 210.306 C 148.834 211.082,149.304 212.357,149.314 211.650 C 149.319 211.322,149.208 210.784,149.066 210.456 C 148.909 210.090,148.813 210.032,148.819 210.306 M266.938 212.959 C 266.842 213.114,267.335 213.689,268.034 214.236 C 268.733 214.783,269.350 215.333,269.405 215.457 C 269.460 215.582,269.635 215.683,269.795 215.683 C 270.211 215.683,269.486 214.747,268.209 213.633 C 267.606 213.106,267.034 212.803,266.938 212.959 M163.107 213.236 C 163.107 213.412,163.243 213.641,163.410 213.745 C 163.577 213.848,163.643 214.047,163.556 214.188 C 163.333 214.548,164.036 215.997,164.342 215.808 C 164.480 215.722,164.518 215.850,164.425 216.091 C 164.192 216.698,166.407 220.469,166.979 220.439 C 167.289 220.424,167.317 220.367,167.063 220.265 C 166.857 220.181,166.764 219.990,166.857 219.840 C 166.950 219.690,166.909 219.567,166.767 219.567 C 166.518 219.567,166.282 219.096,164.913 215.876 C 164.276 214.378,163.107 212.669,163.107 213.236 M150.144 214.314 C 150.244 214.574,150.457 214.787,150.617 214.787 C 151.010 214.787,150.764 214.108,150.317 213.959 C 150.099 213.887,150.032 214.023,150.144 214.314 M151.137 218.071 C 151.669 220.155,151.968 220.899,152.129 220.535 C 152.267 220.222,152.302 220.431,152.217 221.060 C 152.029 222.444,152.926 224.435,153.557 224.035 C 153.875 223.834,153.889 223.757,153.609 223.754 C 153.396 223.751,153.250 223.581,153.283 223.376 C 153.316 223.170,153.261 222.801,153.162 222.554 C 153.062 222.308,152.553 220.527,152.032 218.596 C 151.500 216.629,150.928 215.086,150.730 215.086 C 150.485 215.086,150.611 216.004,151.137 218.071 M72.591 216.082 C 72.591 216.502,72.769 216.779,73.040 216.779 C 73.310 216.779,73.488 216.502,73.488 216.082 C 73.488 215.661,73.310 215.385,73.040 215.385 C 72.769 215.385,72.591 215.661,72.591 216.082 M271.614 217.284 C 272.390 217.835,272.955 218.356,272.870 218.442 C 272.785 218.527,273.404 219.091,274.246 219.696 C 275.088 220.301,275.665 220.613,275.528 220.389 C 274.997 219.519,270.985 216.281,270.439 216.281 C 270.309 216.281,270.838 216.732,271.614 217.284 M72.890 219.417 C 72.890 220.712,73.016 221.658,73.189 221.658 C 73.362 221.658,73.488 220.712,73.488 219.417 C 73.488 218.123,73.362 217.177,73.189 217.177 C 73.016 217.177,72.890 218.123,72.890 219.417 M276.326 221.664 C 277.795 222.871,280.334 225.109,281.233 225.990 C 283.274 227.989,284.954 228.690,283.062 226.752 C 282.428 226.103,281.830 225.593,281.732 225.619 C 281.634 225.645,280.915 225.027,280.134 224.246 C 279.354 223.464,278.715 222.906,278.715 223.005 C 278.715 223.104,278.413 222.863,278.043 222.470 C 277.674 222.076,276.968 221.596,276.475 221.402 L 275.579 221.051 276.326 221.664 M73.277 224.347 C 73.277 225.497,73.377 226.438,73.499 226.438 C 73.621 226.438,73.735 225.497,73.753 224.347 C 73.770 223.196,73.670 222.255,73.531 222.255 C 73.391 222.255,73.277 223.196,73.277 224.347 M168.059 222.704 C 168.167 223.032,168.292 223.578,168.337 223.916 C 168.444 224.722,171.152 229.724,171.482 229.724 C 171.810 229.724,170.330 226.359,169.874 226.069 C 169.684 225.948,169.664 225.845,169.828 225.840 C 170.027 225.834,170.027 225.758,169.828 225.612 C 169.664 225.491,169.154 224.653,168.696 223.749 C 168.238 222.845,167.951 222.375,168.059 222.704 M153.299 224.944 C 153.315 225.720,153.785 226.995,153.795 226.288 C 153.800 225.960,153.689 225.422,153.547 225.093 C 153.390 224.727,153.294 224.669,153.299 224.944 M284.287 228.157 C 284.193 228.309,284.566 228.870,285.116 229.404 C 285.666 229.937,286.194 230.248,286.288 230.096 C 286.382 229.943,286.009 229.382,285.459 228.849 C 284.909 228.316,284.382 228.004,284.287 228.157 M154.945 230.148 C 154.817 230.476,154.859 230.806,155.041 230.919 C 155.217 231.027,155.265 231.362,155.150 231.664 C 154.998 232.059,155.044 232.147,155.313 231.981 C 155.570 231.822,155.658 231.924,155.596 232.305 C 155.545 232.610,155.583 232.995,155.679 233.159 C 155.775 233.323,156.163 234.729,156.542 236.284 C 157.047 238.358,157.291 238.954,157.459 238.524 C 157.788 237.682,157.777 237.128,157.434 237.339 C 157.272 237.440,157.211 237.334,157.299 237.105 C 157.463 236.679,156.473 232.724,156.032 232.043 C 155.898 231.835,155.648 231.195,155.477 230.620 C 155.215 229.735,155.133 229.663,154.945 230.148 M287.976 231.788 C 291.002 234.597,291.314 234.850,291.508 234.655 C 291.619 234.542,290.836 233.668,289.768 232.711 C 288.701 231.754,287.772 231.026,287.705 231.092 C 287.638 231.158,287.369 231.061,287.107 230.876 C 286.846 230.691,287.237 231.101,287.976 231.788 M172.646 231.707 C 173.303 232.543,173.471 233.173,172.950 232.851 C 172.486 232.564,173.372 234.540,174.707 236.768 C 175.552 238.179,175.926 238.586,176.060 238.239 C 176.182 237.921,176.127 237.831,175.898 237.972 C 175.668 238.114,175.615 238.022,175.739 237.698 C 175.842 237.429,175.726 237.009,175.481 236.763 C 175.236 236.518,174.553 235.178,173.963 233.785 C 173.373 232.392,172.697 231.178,172.459 231.087 C 172.177 230.979,172.241 231.192,172.646 231.707 M293.055 236.272 C 293.630 236.795,294.638 237.724,295.295 238.335 C 295.952 238.947,296.698 239.579,296.952 239.739 C 297.206 239.899,297.139 239.779,296.803 239.473 C 296.466 239.167,296.191 238.796,296.191 238.648 C 296.191 238.298,293.285 235.667,293.101 235.851 C 293.024 235.928,292.746 235.841,292.485 235.657 C 292.223 235.472,292.479 235.749,293.055 236.272 M157.466 239.375 C 157.388 239.914,158.118 242.270,158.363 242.270 C 158.735 242.270,158.690 241.748,158.297 241.505 C 158.104 241.386,158.042 240.916,158.147 240.367 C 158.263 239.763,158.231 239.580,158.058 239.849 C 157.842 240.185,157.762 240.156,157.645 239.700 C 157.565 239.388,157.485 239.242,157.466 239.375 M177.011 240.329 C 177.128 240.657,177.247 241.129,177.274 241.378 C 177.410 242.600,180.732 248.508,180.732 247.528 C 180.732 247.020,179.274 244.420,179.085 244.591 C 178.953 244.711,178.920 244.597,179.013 244.336 C 179.107 244.073,178.652 242.945,177.989 241.797 C 177.334 240.661,176.893 240.000,177.011 240.329 M298.131 240.773 C 298.288 241.067,299.100 241.798,299.935 242.398 C 300.885 243.081,301.345 243.287,301.165 242.951 C 300.706 242.093,299.693 241.298,299.339 241.516 C 299.161 241.627,299.034 241.606,299.057 241.471 C 299.165 240.850,298.984 240.536,298.437 240.393 C 297.944 240.264,297.893 240.328,298.131 240.773 M301.718 244.052 C 301.718 244.211,302.020 244.499,302.390 244.693 C 303.058 245.044,303.059 245.042,302.493 244.405 C 301.861 243.693,301.718 243.628,301.718 244.052 M158.997 244.367 C 159.089 244.610,159.473 246.052,159.850 247.571 C 160.264 249.242,160.628 250.185,160.771 249.961 C 161.140 249.379,161.067 248.477,160.671 248.722 C 160.461 248.851,160.407 248.804,160.533 248.599 C 160.836 248.110,159.972 245.067,159.355 244.451 C 158.974 244.070,158.875 244.046,158.997 244.367 M303.520 245.183 C 303.534 245.519,304.758 246.844,305.595 247.430 C 306.988 248.406,306.921 247.944,305.452 246.453 C 304.063 245.042,303.498 244.671,303.520 245.183 M308.290 249.767 C 308.290 249.915,308.428 250.037,308.598 250.037 C 308.767 250.037,309.319 250.508,309.823 251.083 C 310.328 251.658,310.915 252.128,311.127 252.128 C 311.339 252.128,311.589 252.330,311.684 252.577 C 311.778 252.823,312.023 253.025,312.228 253.025 C 312.740 253.025,309.540 249.823,308.847 249.641 C 308.540 249.561,308.290 249.618,308.290 249.767 M160.912 250.399 C 160.813 250.775,160.864 251.128,161.025 251.183 C 161.186 251.238,161.234 251.419,161.132 251.585 C 161.029 251.751,161.098 252.176,161.285 252.530 C 161.472 252.884,161.958 254.317,162.366 255.713 C 162.773 257.110,163.015 257.782,162.904 257.207 C 162.792 256.632,162.712 255.657,162.725 255.041 C 162.738 254.425,162.632 253.921,162.489 253.921 C 162.346 253.921,162.307 253.719,162.401 253.473 C 162.496 253.226,162.429 253.025,162.252 253.025 C 162.075 253.025,161.999 252.846,162.083 252.628 C 162.167 252.410,162.073 251.839,161.874 251.358 C 161.676 250.878,161.503 250.396,161.489 250.286 C 161.419 249.729,161.070 249.797,160.912 250.399 M182.054 250.641 C 182.142 251.829,182.691 253.025,183.150 253.025 C 183.318 253.025,183.378 253.150,183.284 253.303 C 183.189 253.456,183.417 254.044,183.789 254.610 C 184.161 255.176,184.618 255.891,184.804 256.199 C 184.991 256.507,185.232 256.674,185.341 256.570 C 185.451 256.467,185.348 256.190,185.114 255.956 C 184.880 255.722,184.594 255.100,184.478 254.573 C 184.363 254.047,184.145 253.693,183.994 253.786 C 183.843 253.880,183.713 253.713,183.705 253.416 C 183.697 253.118,183.305 252.136,182.834 251.232 C 181.993 249.621,181.978 249.609,182.054 250.641 M186.119 258.261 C 186.124 258.420,186.321 258.806,186.557 259.118 C 186.793 259.430,186.923 259.787,186.846 259.911 C 186.507 260.460,189.661 266.401,190.073 265.989 C 190.272 265.790,190.002 264.904,189.672 264.675 C 189.554 264.593,188.916 263.354,188.255 261.922 C 187.070 259.356,186.100 257.693,186.119 258.261 M163.586 260.382 C 163.702 260.854,163.927 261.326,164.087 261.430 C 164.247 261.535,164.293 261.759,164.189 261.928 C 164.085 262.096,164.105 262.279,164.234 262.334 C 164.364 262.390,164.981 264.451,165.607 266.916 C 166.232 269.380,166.799 271.453,166.867 271.521 C 167.201 271.859,167.324 271.201,167.000 270.810 C 166.793 270.562,166.702 270.051,166.797 269.674 C 167.042 268.697,166.698 267.486,166.325 268.011 C 166.129 268.287,166.094 268.181,166.211 267.662 C 166.395 266.851,164.944 261.389,164.545 261.389 C 164.411 261.389,164.302 261.178,164.302 260.920 C 164.302 260.661,164.093 260.242,163.839 259.987 C 163.421 259.569,163.396 259.608,163.586 260.382 M190.897 267.513 C 190.898 267.677,191.023 268.010,191.176 268.252 C 191.360 268.542,191.333 268.770,191.097 268.920 C 190.864 269.068,190.948 269.150,191.337 269.156 C 191.757 269.163,191.821 269.237,191.554 269.407 C 191.263 269.591,191.358 269.922,191.958 270.805 C 192.389 271.441,193.031 272.564,193.384 273.300 C 193.737 274.036,194.197 274.694,194.407 274.763 C 194.752 274.875,194.051 272.916,193.577 272.442 C 193.495 272.360,193.402 272.146,193.369 271.968 C 193.279 271.467,190.897 267.174,190.897 267.513 M341.843 279.835 C 341.924 280.205,341.866 280.584,341.715 280.678 C 341.563 280.771,341.527 280.990,341.634 281.164 C 341.742 281.337,342.015 281.039,342.241 280.500 C 342.468 279.962,342.584 279.452,342.499 279.367 C 342.414 279.283,342.343 279.404,342.340 279.637 C 342.337 279.987,342.281 279.982,342.016 279.612 C 341.759 279.252,341.725 279.296,341.843 279.835 M267.364 292.225 C 266.624 292.370,265.336 292.426,264.500 292.350 C 263.665 292.274,262.791 292.332,262.559 292.479 C 262.300 292.643,263.879 292.731,266.617 292.706 C 269.081 292.684,270.695 292.607,270.202 292.535 C 269.709 292.463,269.171 292.305,269.007 292.183 C 268.842 292.061,268.103 292.080,267.364 292.225 M271.397 292.158 C 271.278 292.351,272.445 292.457,274.683 292.457 C 276.920 292.457,278.088 292.351,277.969 292.158 C 277.865 291.990,276.428 291.860,274.683 291.860 C 272.937 291.860,271.500 291.990,271.397 292.158 M205.125 292.830 C 205.201 292.954,209.848 293.055,215.452 293.055 C 221.056 293.055,225.540 292.954,225.417 292.830 C 225.294 292.707,220.646 292.606,215.090 292.606 C 209.533 292.606,205.049 292.707,205.125 292.830 M230.396 292.681 C 232.984 292.730,237.218 292.730,239.806 292.681 C 242.394 292.631,240.276 292.590,235.101 292.590 C 229.925 292.590,227.808 292.631,230.396 292.681 M246.751 292.743 C 245.580 292.869,248.239 292.972,253.448 293.003 C 258.199 293.031,262.030 293.004,261.962 292.942 C 261.708 292.714,248.625 292.543,246.751 292.743 M231.757 293.278 C 233.779 293.330,237.006 293.329,238.927 293.277 C 240.848 293.225,239.193 293.183,235.250 293.183 C 231.307 293.184,229.735 293.226,231.757 293.278 " stroke="none" fill="#fcfbfb" fill-rule="evenodd"></path></g></svg>