<svg id="svg" xmlns="http://www.w3.org/2000/svg" xmlns:xlink="http://www.w3.org/1999/xlink" width="400" height="355.55555555555554" viewBox="0, 0, 400,355.55555555555554" version="1.1"><g id="svgg"><path id="path0" d="M265.769 27.354 C 265.692 27.424,264.438 27.571,262.982 27.682 C 261.527 27.793,260.252 27.936,260.151 27.998 C 260.049 28.061,259.374 28.186,258.650 28.276 C 255.458 28.672,250.343 30.003,245.481 31.702 C 243.221 32.492,242.684 32.700,240.296 33.705 C 237.795 34.759,232.424 37.615,231.733 38.258 C 231.448 38.525,230.924 38.834,230.570 38.947 C 230.216 39.059,229.926 39.261,229.926 39.395 C 229.926 39.530,229.626 39.717,229.259 39.812 C 228.893 39.907,228.068 40.454,227.428 41.029 C 226.787 41.604,226.087 42.074,225.872 42.074 C 225.657 42.074,225.481 42.194,225.481 42.341 C 225.481 42.488,225.095 42.855,224.622 43.156 C 222.134 44.740,212.148 54.527,212.148 55.381 C 212.148 55.519,211.938 55.806,211.680 56.019 C 211.040 56.550,207.235 61.704,207.359 61.873 C 207.413 61.947,207.340 62.089,207.196 62.189 C 206.944 62.364,205.930 64.028,204.556 66.519 C 202.885 69.548,201.962 71.431,201.139 73.481 C 200.649 74.704,200.071 76.104,199.854 76.593 C 199.638 77.081,199.111 78.615,198.685 80.000 C 198.258 81.385,197.780 82.926,197.623 83.423 C 197.466 83.920,197.203 84.954,197.039 85.719 C 196.875 86.485,196.618 87.678,196.469 88.370 C 196.019 90.451,195.688 92.908,195.280 97.185 C 195.034 99.776,195.110 109.265,195.393 111.111 C 195.480 111.681,195.693 113.272,195.865 114.645 C 196.037 116.018,196.246 117.252,196.329 117.386 C 196.412 117.521,196.584 118.289,196.712 119.094 L 196.943 120.556 194.694 120.412 C 193.457 120.333,190.244 120.058,187.556 119.801 C 184.867 119.544,182.231 119.298,181.699 119.255 C 179.471 119.075,169.912 117.545,165.926 116.731 C 164.378 116.414,162.778 116.091,162.370 116.013 C 161.963 115.935,161.096 115.730,160.444 115.557 C 159.793 115.385,158.659 115.122,157.926 114.973 C 155.793 114.540,153.236 113.889,150.370 113.052 C 148.904 112.623,147.504 112.224,147.259 112.166 C 146.531 111.991,141.979 110.529,138.963 109.499 C 137.415 108.971,135.415 108.299,134.519 108.006 C 133.622 107.713,132.762 107.358,132.607 107.218 C 132.453 107.078,132.046 106.963,131.704 106.963 C 131.361 106.963,130.955 106.851,130.800 106.714 C 130.645 106.577,130.052 106.287,129.481 106.068 C 126.220 104.819,119.084 101.760,116.090 100.326 C 114.183 99.413,112.494 98.667,112.337 98.667 C 112.179 98.667,112.005 98.567,111.951 98.444 C 111.857 98.234,109.688 97.098,109.300 97.057 C 109.201 97.046,108.334 96.592,107.374 96.048 C 106.415 95.504,104.563 94.457,103.259 93.722 C 100.353 92.082,99.826 91.774,96.333 89.672 C 94.804 88.752,93.438 88.000,93.295 88.000 C 93.153 88.000,93.037 87.867,93.037 87.704 C 93.037 87.541,92.847 87.407,92.614 87.407 C 92.381 87.407,92.014 87.240,91.799 87.036 C 91.584 86.831,89.874 85.634,88.000 84.375 C 82.995 81.012,81.484 79.961,79.324 78.344 C 78.255 77.544,77.092 76.689,76.738 76.444 C 76.385 76.200,75.675 75.641,75.159 75.202 C 74.644 74.764,72.689 73.166,70.815 71.653 C 68.941 70.139,67.107 68.578,66.741 68.185 C 66.374 67.791,66.074 67.542,66.074 67.631 C 66.074 67.720,65.633 67.373,65.093 66.859 C 64.554 66.346,62.925 64.859,61.475 63.556 C 57.985 60.419,51.238 53.538,46.370 48.150 C 45.230 46.888,44.130 45.680,43.926 45.467 C 43.722 45.254,43.556 44.997,43.556 44.897 C 43.556 44.796,43.256 44.402,42.889 44.021 C 42.522 43.640,41.837 42.851,41.366 42.269 L 40.510 41.210 39.960 41.910 C 39.149 42.940,36.450 48.360,36.447 48.963 C 36.446 49.248,36.322 49.481,36.172 49.481 C 36.022 49.481,35.809 49.915,35.698 50.444 C 35.588 50.974,35.332 51.674,35.129 52.000 C 34.777 52.566,34.403 53.714,34.170 54.940 C 34.111 55.253,33.944 55.653,33.799 55.829 C 33.582 56.091,32.193 60.880,31.858 62.519 C 31.419 64.665,30.808 68.300,30.663 69.630 C 30.564 70.526,30.400 71.993,30.296 72.889 C 29.151 82.812,31.451 98.760,35.231 107.095 C 35.735 108.208,36.148 109.231,36.148 109.368 C 36.148 109.610,38.150 113.733,39.584 116.444 C 41.556 120.173,45.071 125.184,48.593 129.286 C 49.496 130.339,56.173 137.057,56.889 137.634 C 57.296 137.963,58.630 138.993,59.852 139.924 C 61.074 140.855,62.407 141.880,62.815 142.201 L 63.556 142.784 62.667 142.668 C 62.178 142.605,60.844 142.483,59.704 142.397 C 58.563 142.311,57.230 142.173,56.741 142.090 C 56.252 142.007,55.385 141.870,54.815 141.786 C 52.457 141.439,48.942 140.735,47.556 140.331 C 46.741 140.094,45.121 139.626,43.956 139.291 C 42.791 138.955,41.457 138.528,40.993 138.341 C 40.528 138.153,39.881 137.897,39.556 137.771 C 36.137 136.451,30.852 133.979,30.081 133.339 C 28.792 132.269,29.486 143.419,31.142 150.370 C 31.297 151.022,31.485 151.822,31.559 152.148 C 31.633 152.474,31.788 153.141,31.904 153.630 C 32.020 154.119,32.128 154.585,32.145 154.667 C 32.221 155.043,33.827 159.918,34.048 160.444 C 34.185 160.770,34.469 161.437,34.680 161.926 C 34.890 162.415,35.078 162.948,35.096 163.111 C 35.115 163.274,35.359 163.924,35.639 164.555 C 35.919 165.186,36.148 165.747,36.148 165.801 C 36.148 165.855,36.538 166.561,37.014 167.368 C 37.490 168.176,37.801 168.915,37.705 169.011 C 37.609 169.107,37.686 169.185,37.877 169.185 C 38.067 169.185,38.222 169.452,38.222 169.778 C 38.222 170.104,38.356 170.370,38.519 170.370 C 38.681 170.370,38.815 170.519,38.815 170.700 C 38.815 171.095,41.517 175.513,41.845 175.654 C 41.971 175.709,42.074 175.890,42.074 176.058 C 42.074 176.323,43.927 178.967,45.202 180.522 C 45.437 180.809,45.630 181.113,45.630 181.199 C 45.630 181.284,46.030 181.744,46.519 182.222 C 47.007 182.700,47.407 183.219,47.407 183.376 C 47.407 183.533,47.741 183.923,48.148 184.243 C 48.556 184.564,48.889 184.912,48.889 185.016 C 48.889 185.350,54.279 190.530,56.896 192.710 C 61.567 196.604,67.537 200.522,71.588 202.355 C 72.258 202.658,73.584 203.275,74.536 203.725 C 75.487 204.175,76.439 204.543,76.651 204.543 C 76.864 204.543,77.037 204.654,77.037 204.790 C 77.037 204.926,77.344 205.037,77.719 205.037 C 78.093 205.037,78.527 205.151,78.681 205.290 C 79.058 205.629,85.864 207.854,87.433 208.151 C 90.315 208.697,90.316 208.714,87.538 209.331 C 86.407 209.583,85.215 209.855,84.889 209.936 C 84.563 210.017,83.723 210.144,83.021 210.219 C 82.320 210.293,81.612 210.438,81.447 210.540 C 80.267 211.269,61.103 211.292,59.928 210.565 C 59.792 210.482,58.853 210.328,57.841 210.225 C 56.093 210.046,55.702 210.194,56.237 210.830 C 56.367 210.984,56.711 211.844,57.002 212.741 C 57.671 214.799,57.826 215.191,58.757 217.185 C 59.175 218.081,59.893 219.648,60.351 220.667 C 60.809 221.685,61.284 222.519,61.407 222.519 C 61.529 222.519,61.630 222.785,61.630 223.111 C 61.630 223.437,61.761 223.704,61.922 223.704 C 62.083 223.704,62.408 224.137,62.646 224.667 C 63.268 226.057,64.363 227.900,64.963 228.570 C 65.248 228.888,65.482 229.290,65.483 229.463 C 65.484 229.636,65.884 230.204,66.372 230.725 C 66.860 231.245,67.259 231.812,67.259 231.984 C 67.259 232.156,67.384 232.296,67.536 232.296 C 67.688 232.296,67.889 232.538,67.983 232.834 C 68.077 233.130,68.735 233.997,69.446 234.760 C 70.157 235.524,70.683 236.148,70.616 236.148 C 70.424 236.148,72.492 238.330,74.940 240.707 C 78.523 244.188,80.595 246.075,80.824 246.065 C 80.941 246.059,81.319 246.359,81.664 246.731 C 82.008 247.103,82.381 247.407,82.491 247.407 C 82.710 247.407,82.972 247.603,84.265 248.732 C 84.737 249.144,85.304 249.481,85.525 249.481 C 85.745 249.481,85.926 249.615,85.926 249.778 C 85.926 249.941,86.130 250.074,86.380 250.074 C 86.629 250.074,86.910 250.274,87.004 250.519 C 87.098 250.763,87.304 250.963,87.463 250.963 C 87.622 250.963,88.441 251.420,89.283 251.979 C 94.480 255.428,105.121 259.663,112.444 261.198 C 115.851 261.912,117.982 262.264,118.111 262.136 C 118.197 262.050,118.670 262.096,119.163 262.237 C 119.655 262.378,121.479 262.582,123.214 262.690 C 126.589 262.900,126.952 262.993,126.149 263.443 C 125.866 263.601,125.044 264.224,124.321 264.828 C 122.713 266.172,119.546 268.444,119.282 268.444 C 119.176 268.444,117.861 269.287,116.359 270.316 C 114.858 271.345,112.963 272.577,112.148 273.053 C 111.333 273.529,110.451 274.053,110.188 274.218 C 109.925 274.383,109.125 274.836,108.411 275.225 C 107.696 275.614,107.044 276.014,106.963 276.114 C 106.881 276.214,105.748 276.830,104.444 277.481 C 103.141 278.133,101.994 278.776,101.896 278.909 C 101.798 279.042,101.532 279.188,101.304 279.235 C 100.931 279.310,98.250 280.515,94.943 282.092 C 94.281 282.408,93.581 282.667,93.388 282.667 C 93.195 282.667,93.037 282.800,93.037 282.963 C 93.037 283.126,92.934 283.226,92.809 283.185 C 92.683 283.144,92.050 283.334,91.401 283.606 C 90.753 283.878,89.156 284.518,87.852 285.029 C 86.548 285.539,85.215 286.067,84.889 286.202 C 83.729 286.680,74.859 289.505,73.185 289.929 C 71.175 290.438,65.812 291.660,64.045 292.012 C 62.847 292.251,61.781 292.497,61.674 292.560 C 61.568 292.623,60.681 292.762,59.704 292.870 C 58.726 292.977,57.726 293.120,57.481 293.187 C 56.820 293.370,55.672 293.555,53.734 293.790 C 52.780 293.906,51.733 294.052,51.407 294.114 C 50.392 294.309,48.504 294.519,46.660 294.644 C 45.686 294.710,43.489 294.866,41.778 294.990 C 38.119 295.255,25.460 295.264,23.111 295.004 C 22.215 294.904,20.348 294.748,18.963 294.656 C 17.578 294.564,16.212 294.420,15.929 294.336 C 14.850 294.018,14.772 294.601,15.810 295.221 C 16.390 295.568,17.627 296.319,18.559 296.889 C 21.058 298.418,22.072 299.008,25.185 300.748 C 26.733 301.612,28.533 302.634,29.185 303.017 C 29.837 303.401,31.237 304.114,32.296 304.603 C 33.356 305.091,34.422 305.622,34.667 305.783 C 34.911 305.944,35.394 306.199,35.740 306.349 C 36.085 306.500,37.685 307.276,39.295 308.074 C 40.905 308.872,44.289 310.364,46.815 311.390 C 49.341 312.415,51.674 313.366,52.000 313.503 C 54.788 314.672,56.876 315.445,61.481 317.016 C 64.415 318.016,66.815 318.808,66.815 318.776 C 66.815 318.744,67.481 318.930,68.296 319.188 C 69.111 319.447,70.778 319.948,72.000 320.301 C 73.222 320.655,74.825 321.124,75.562 321.345 C 76.298 321.565,77.365 321.832,77.932 321.937 C 79.305 322.192,79.852 322.316,79.852 322.370 C 79.852 322.428,80.499 322.588,81.630 322.810 C 82.119 322.906,82.919 323.102,83.407 323.245 C 83.896 323.388,84.830 323.607,85.481 323.730 C 86.133 323.853,86.733 323.975,86.815 324.000 C 87.015 324.062,88.833 324.410,89.926 324.595 C 90.415 324.678,92.348 325.026,94.222 325.368 C 96.096 325.710,98.030 326.032,98.519 326.083 C 99.007 326.134,100.274 326.310,101.333 326.475 C 102.393 326.639,104.107 326.851,105.144 326.945 C 106.180 327.039,107.114 327.167,107.218 327.228 C 107.322 327.289,108.741 327.434,110.370 327.551 C 112.000 327.668,113.417 327.814,113.519 327.877 C 114.301 328.354,136.601 328.600,143.556 328.207 C 151.073 327.782,151.866 327.730,153.185 327.575 C 153.919 327.489,155.119 327.347,155.852 327.260 C 156.585 327.173,157.684 327.043,158.294 326.972 C 158.904 326.901,159.837 326.769,160.368 326.679 C 160.899 326.589,162.000 326.451,162.815 326.372 C 163.630 326.293,164.763 326.159,165.333 326.074 C 165.904 325.988,166.837 325.853,167.407 325.773 C 171.187 325.244,174.386 324.652,179.556 323.524 C 181.756 323.044,183.889 322.583,184.296 322.500 C 185.682 322.216,190.072 321.135,190.519 320.967 C 190.763 320.875,191.207 320.752,191.505 320.695 C 192.506 320.500,199.239 318.470,201.185 317.777 C 202.244 317.399,204.044 316.800,205.185 316.446 C 207.703 315.664,216.317 312.336,216.768 311.971 C 216.946 311.827,217.179 311.797,217.287 311.904 C 217.394 312.011,217.481 311.943,217.481 311.753 C 217.481 311.563,217.694 311.407,217.954 311.407 C 218.214 311.407,218.781 311.217,219.214 310.985 C 219.646 310.753,220.767 310.262,221.704 309.894 C 222.641 309.525,223.407 309.115,223.407 308.983 C 223.407 308.850,223.618 308.741,223.876 308.741 C 224.133 308.741,225.833 307.999,227.653 307.093 C 229.474 306.186,231.563 305.153,232.296 304.796 C 233.030 304.440,233.696 304.067,233.778 303.967 C 233.988 303.711,235.929 302.711,236.363 302.636 C 236.563 302.601,237.081 302.294,237.514 301.953 C 237.948 301.612,238.430 301.333,238.587 301.333 C 238.743 301.333,239.292 301.034,239.806 300.667 C 240.320 300.301,240.807 299.995,240.889 299.988 C 241.064 299.973,242.457 299.175,243.704 298.375 C 244.193 298.061,245.008 297.592,245.516 297.332 C 246.023 297.072,246.718 296.599,247.059 296.282 C 247.400 295.964,247.769 295.704,247.878 295.704 C 247.988 295.704,248.727 295.237,249.521 294.667 C 250.315 294.096,251.022 293.630,251.093 293.630 C 251.164 293.630,252.130 293.005,253.241 292.242 C 254.351 291.479,255.664 290.578,256.158 290.240 C 256.653 289.901,257.253 289.457,257.491 289.253 C 257.730 289.049,258.459 288.478,259.111 287.984 C 259.763 287.490,260.499 286.925,260.747 286.728 C 260.994 286.531,261.728 285.975,262.376 285.492 C 263.025 285.009,263.733 284.442,263.949 284.231 C 264.165 284.020,264.630 283.694,264.980 283.507 C 265.331 283.319,265.864 282.853,266.164 282.471 C 266.464 282.090,266.889 281.778,267.108 281.778 C 267.327 281.778,267.551 281.678,267.605 281.556 C 267.659 281.433,268.970 280.270,270.519 278.971 C 272.067 277.671,273.400 276.538,273.481 276.452 C 273.563 276.366,274.185 275.807,274.863 275.209 C 275.542 274.611,276.042 274.067,275.975 274.000 C 275.908 273.932,276.153 273.717,276.519 273.520 C 277.322 273.090,288.861 261.488,290.525 259.437 C 291.173 258.639,292.282 257.372,292.988 256.622 C 293.695 255.873,294.828 254.526,295.507 253.630 C 296.186 252.733,297.163 251.533,297.680 250.963 C 298.196 250.393,298.925 249.526,299.299 249.037 C 299.673 248.548,300.062 248.081,300.163 248.000 C 300.265 247.919,301.066 246.852,301.945 245.630 C 302.823 244.407,303.645 243.363,303.771 243.309 C 303.897 243.254,304.000 243.021,304.000 242.790 C 304.000 242.559,304.105 242.370,304.232 242.370 C 304.360 242.370,304.719 241.937,305.029 241.407 C 305.339 240.878,305.801 240.282,306.055 240.083 C 306.310 239.885,306.409 239.718,306.275 239.713 C 306.141 239.708,306.208 239.523,306.423 239.303 C 307.350 238.355,311.741 231.791,312.647 230.000 C 312.832 229.633,313.096 229.333,313.233 229.333 C 313.370 229.333,313.481 229.218,313.481 229.078 C 313.481 228.839,315.457 225.398,318.368 220.569 C 319.063 219.415,319.728 218.167,319.846 217.796 C 319.964 217.425,320.248 216.903,320.477 216.635 C 320.706 216.367,320.904 216.015,320.917 215.852 C 320.929 215.689,321.055 215.416,321.197 215.245 C 321.596 214.764,324.066 209.934,324.794 208.211 C 325.152 207.362,325.649 206.347,325.897 205.957 C 326.144 205.566,326.388 204.977,326.439 204.647 C 326.489 204.317,326.682 203.864,326.867 203.641 C 327.345 203.065,328.602 200.296,328.385 200.296 C 328.286 200.296,328.446 200.030,328.741 199.704 C 329.036 199.378,329.185 199.111,329.073 199.111 C 328.960 199.111,329.034 198.811,329.238 198.444 C 329.441 198.078,329.579 197.678,329.544 197.556 C 329.510 197.433,329.615 197.333,329.778 197.333 C 329.941 197.333,330.053 197.233,330.028 197.111 C 330.003 196.989,330.203 196.393,330.473 195.787 C 330.742 195.181,330.963 194.504,330.963 194.281 C 330.963 194.059,331.063 193.777,331.185 193.654 C 331.307 193.532,331.408 193.343,331.409 193.235 C 331.409 193.126,331.900 191.837,332.500 190.370 C 334.156 186.318,335.393 183.030,335.509 182.370 C 335.566 182.044,335.751 181.444,335.919 181.037 C 336.381 179.916,337.224 177.405,337.351 176.771 C 337.413 176.462,337.629 175.729,337.831 175.142 C 338.032 174.555,338.212 174.007,338.230 173.926 C 338.248 173.844,338.443 173.178,338.663 172.444 C 338.883 171.711,339.117 170.844,339.184 170.519 C 339.353 169.698,339.437 169.402,339.651 168.889 C 339.881 168.336,340.249 166.876,341.068 163.259 C 341.419 161.711,341.777 160.244,341.865 160.000 C 341.952 159.756,342.046 159.356,342.074 159.111 C 342.102 158.867,342.213 158.467,342.320 158.222 C 342.427 157.978,342.637 156.978,342.786 156.000 C 342.936 155.022,343.153 153.822,343.270 153.333 C 343.387 152.844,343.513 152.244,343.550 152.000 C 343.587 151.756,343.703 151.222,343.806 150.815 C 344.172 149.371,345.076 143.684,345.361 141.037 C 345.440 140.304,345.625 139.037,345.773 138.222 C 346.073 136.569,346.552 131.896,346.834 127.868 C 346.936 126.410,347.083 124.943,347.161 124.608 C 347.238 124.274,347.336 119.112,347.377 113.138 L 347.452 102.277 349.504 100.730 C 350.632 99.879,351.600 99.067,351.654 98.925 C 351.709 98.783,351.881 98.667,352.037 98.667 C 352.347 98.667,352.754 98.354,354.061 97.111 C 354.532 96.663,354.994 96.296,355.088 96.296 C 355.182 96.296,355.511 96.063,355.820 95.778 C 356.128 95.493,357.158 94.593,358.109 93.778 C 359.061 92.963,360.389 91.730,361.060 91.037 C 361.732 90.344,362.346 89.778,362.425 89.778 C 362.504 89.778,364.225 88.098,366.248 86.045 C 368.271 83.992,370.290 81.973,370.735 81.557 C 371.179 81.142,371.625 80.545,371.725 80.230 C 371.824 79.916,371.976 79.729,372.061 79.815 C 372.147 79.900,372.829 79.210,373.577 78.281 C 374.325 77.352,375.109 76.486,375.320 76.356 C 375.531 76.225,375.704 75.986,375.704 75.824 C 375.704 75.661,376.004 75.221,376.370 74.845 C 377.431 73.757,378.381 72.593,378.207 72.593 C 378.119 72.593,378.353 72.280,378.727 71.898 C 379.427 71.183,381.216 68.794,381.825 67.762 C 382.014 67.441,382.287 67.097,382.432 66.997 C 382.577 66.897,383.056 66.215,383.498 65.481 C 383.940 64.748,384.513 63.853,384.773 63.491 C 385.210 62.882,385.075 62.906,382.919 63.822 C 380.598 64.806,379.745 65.136,379.330 65.206 C 379.210 65.227,378.858 65.379,378.549 65.544 C 377.521 66.095,368.895 69.110,366.963 69.595 C 365.937 69.852,364.605 70.206,362.963 70.658 C 360.419 71.358,358.965 71.720,358.154 71.856 C 357.621 71.946,356.785 72.140,356.296 72.286 C 355.807 72.433,354.674 72.693,353.778 72.863 C 352.129 73.175,351.065 73.377,349.852 73.609 C 348.926 73.785,345.337 74.307,343.556 74.524 L 342.074 74.704 343.111 74.057 C 343.681 73.701,344.193 73.293,344.247 73.149 C 344.301 73.006,344.479 72.889,344.643 72.889 C 344.902 72.889,347.449 71.235,347.852 70.805 C 347.933 70.718,348.666 70.118,349.481 69.471 C 350.296 68.825,351.114 68.163,351.299 68.000 C 351.485 67.837,352.342 67.104,353.204 66.370 C 355.959 64.029,358.101 61.805,361.037 58.240 C 361.689 57.449,362.389 56.630,362.593 56.422 C 362.796 56.213,362.963 55.911,362.963 55.750 C 362.963 55.589,363.063 55.412,363.185 55.358 C 363.425 55.252,364.939 53.097,367.173 49.686 C 369.402 46.284,372.352 40.144,374.216 35.027 C 374.984 32.919,374.922 32.634,373.874 33.459 C 373.469 33.777,372.782 34.127,372.347 34.236 C 371.912 34.345,371.556 34.531,371.556 34.648 C 371.556 34.766,370.856 35.183,370.000 35.576 C 369.144 35.969,368.378 36.358,368.296 36.441 C 368.024 36.719,360.164 40.515,359.037 40.912 C 358.426 41.128,357.926 41.411,357.926 41.541 C 357.926 41.671,357.729 41.778,357.489 41.778 C 357.249 41.778,356.483 42.035,355.786 42.350 C 354.460 42.949,353.396 43.328,353.244 43.255 C 353.194 43.231,352.840 43.418,352.455 43.669 C 351.771 44.118,340.575 47.958,339.407 48.145 C 339.081 48.197,338.148 48.444,337.333 48.694 C 336.519 48.944,334.052 49.564,331.852 50.071 C 329.652 50.578,327.622 51.061,327.341 51.144 C 327.023 51.238,326.452 50.925,325.826 50.314 C 322.543 47.106,320.357 45.183,317.541 43.023 C 315.797 41.685,314.370 40.662,314.370 40.751 C 314.370 40.840,314.075 40.636,313.713 40.300 C 313.050 39.682,311.194 38.536,308.166 36.874 C 304.601 34.918,302.382 33.778,302.141 33.778 C 302.002 33.778,301.159 33.444,300.269 33.037 C 299.378 32.630,298.573 32.296,298.480 32.296 C 298.388 32.296,297.892 32.108,297.378 31.877 C 296.582 31.520,294.397 30.753,293.926 30.664 C 293.844 30.649,292.981 30.397,292.007 30.105 C 290.110 29.536,285.461 28.479,284.000 28.284 C 283.511 28.218,282.511 28.094,281.778 28.007 C 281.044 27.920,280.111 27.771,279.704 27.675 C 278.822 27.467,265.970 27.171,265.769 27.354 " stroke="none" fill="#1ca4f4" fill-rule="evenodd"></path><path id="path1" d="M323.259 47.796 C 323.259 47.847,323.693 48.281,324.222 48.759 L 325.185 49.630 324.315 48.667 C 323.504 47.769,323.259 47.568,323.259 47.796 M364.444 53.630 C 364.096 54.119,363.878 54.519,363.960 54.519 C 364.041 54.519,364.393 54.119,364.741 53.630 C 365.089 53.141,365.307 52.741,365.226 52.741 C 365.144 52.741,364.793 53.141,364.444 53.630 M59.852 62.074 C 60.405 62.644,60.924 63.111,61.005 63.111 C 61.087 63.111,60.701 62.644,60.148 62.074 C 59.595 61.504,59.076 61.037,58.995 61.037 C 58.913 61.037,59.299 61.504,59.852 62.074 M204.296 66.667 C 204.043 67.156,203.903 67.556,203.985 67.556 C 204.066 67.556,204.340 67.156,204.593 66.667 C 204.845 66.178,204.986 65.778,204.904 65.778 C 204.823 65.778,204.549 66.178,204.296 66.667 M364.881 87.481 L 362.815 89.630 364.963 87.564 C 366.958 85.644,367.246 85.333,367.029 85.333 C 366.984 85.333,366.017 86.300,364.881 87.481 M347.328 104.593 C 347.328 105.163,347.389 105.396,347.464 105.111 C 347.538 104.826,347.538 104.359,347.464 104.074 C 347.389 103.789,347.328 104.022,347.328 104.593 M52.741 189.130 C 52.741 189.181,53.174 189.614,53.704 190.093 L 54.667 190.963 53.796 190.000 C 52.985 189.102,52.741 188.901,52.741 189.130 M74.667 240.741 C 75.552 241.637,76.343 242.370,76.424 242.370 C 76.506 242.370,75.848 241.637,74.963 240.741 C 74.078 239.844,73.287 239.111,73.205 239.111 C 73.124 239.111,73.782 239.844,74.667 240.741 M291.555 258.148 C 291.118 258.744,291.047 258.951,291.367 258.691 C 291.853 258.296,292.587 257.185,292.362 257.185 C 292.306 257.185,291.942 257.619,291.555 258.148 M282.658 267.778 L 280.741 269.778 282.741 267.860 C 283.841 266.806,284.741 265.906,284.741 265.860 C 284.741 265.642,284.439 265.920,282.658 267.778 M33.115 295.321 C 33.483 295.392,34.016 295.389,34.300 295.315 C 34.583 295.241,34.281 295.183,33.630 295.186 C 32.978 295.189,32.746 295.250,33.115 295.321 M130.449 328.509 C 130.899 328.577,131.566 328.575,131.930 328.505 C 132.294 328.435,131.926 328.379,131.111 328.381 C 130.296 328.383,129.998 328.441,130.449 328.509 " stroke="none" fill="#1c9cf4" fill-rule="evenodd"></path></g></svg>