<svg id="svg" version="1.1" xmlns="http://www.w3.org/2000/svg" xmlns:xlink="http://www.w3.org/1999/xlink" width="400" height="400" viewBox="0, 0, 400,400"><g id="svgg"><path id="path0" d="M132.813 49.299 C 79.784 51.018,56.236 52.912,46.484 56.243 C 19.190 65.567,5.592 87.792,1.789 129.297 C -0.184 150.834,-0.205 249.560,1.759 271.201 C 6.243 320.606,22.833 341.026,62.891 346.445 C 108.022 352.549,288.757 352.797,338.672 346.823 C 370.813 342.976,388.865 324.660,395.983 288.672 C 401.785 259.338,401.124 133.568,395.025 106.560 C 387.932 75.144,371.237 58.424,342.188 53.643 C 318.096 49.677,197.993 47.186,132.813 49.299 M262.967 73.447 C 317.008 75.218,338.486 76.810,346.543 79.642 C 371.007 88.240,376.003 108.718,376.003 200.391 C 376.003 298.786,369.698 318.216,336.328 322.654 C 296.160 327.995,128.747 328.477,75.000 323.406 C 29.282 319.092,23.992 306.333,23.996 200.391 C 23.999 104.445,30.031 84.006,60.156 77.853 C 78.977 74.009,199.928 71.382,262.967 73.447 M160.815 132.011 C 148.528 135.723,148.311 136.914,148.600 198.988 L 148.828 248.047 150.781 251.528 C 155.626 260.163,165.083 262.529,174.852 257.551 C 186.029 251.855,262.188 210.707,264.191 209.282 C 271.569 204.033,272.075 190.669,265.138 184.249 C 262.707 181.999,174.769 133.650,170.391 132.156 C 167.399 131.135,163.891 131.082,160.815 132.011 M200.482 175.844 C 215.471 184.043,229.965 191.989,232.691 193.502 L 237.649 196.253 210.035 211.061 C 194.848 219.205,180.225 227.072,177.539 228.544 L 172.656 231.220 172.656 196.079 C 172.656 176.751,172.785 160.938,172.943 160.938 C 173.101 160.938,185.493 167.645,200.482 175.844 " stroke="none" fill="#000000" fill-rule="evenodd"></path></g></svg>